<svg id="Layer_1" xmlns="http://www.w3.org/2000/svg" viewBox="0 0 700 1200"><style>.st0{fill:#fff}.st1{fill:#ec1c25}</style><path class="st0" d="M452 447.6c5.4 0 10-.7 9.4-6.7-6.6-1.2-6.5 4.2-9.4 6.7zm139.2 220.9c-1.2-2.5-1.5-5.9-.7-8.7-1.2 2.8-2 5.8-2.8 8.1-2 6.1-5.4 10.8-6.4 17.2-1 6.2-4 8-6.8 13.7-1.5 3.1-1.9 5.9-2.9 9.1-.8 2.4-3.1 4.8-3.3 7.3-4.2-.8-7.5 4.1-8.7 7.1-1.8 4.5-.9 6.9-6.9 6.6-2.1 3.1-5.3 7.3-8.6 9.1-3.2 1.8-6.3.9-9.7 1-2.9.1-5.5 1.3-8.4 1.4-2.1 0-5.1-.3-6.2 1.8-.3.2-.5-.1-.8.1-1.1 2.8-4.2-.1-5.6 0-2 .2-3.6 2.8-5 3.1-.8 5-.4 11.2 1.3 14.3 1.2-3.7 1.7-8.2 4-10.7 2.6 4.5-1.4 13.4 4 17.4-3.5-7.5.5-15.5 5.4-18.7.9 5.3-2.3 14.8 2.7 16.1-2.9-5.9 1-12.1 5.3-14.7.2 4.7 4.4-2.8 4 1.3 1.3 2.5-4 4.5 0 5.4 2.5-3.3 4.1-7.6 8-9.4.8 2.4-1.6 7.9 1.3 8 1.4-4.9 4.2-8.3 8-10.7.2 2-.5 4.9 1.3 5.4 2.2-3.3 5.8-12.9 9.4-6.7 4.4-4.8 2.1-8.7 5.3-13.4 2.2 0 .8 3.7 2.7 4 4.9-3-2.1-10.7 4-13.4-.1 2.3 1 3.4 2.7 4 1.8-9.8 7.1-15.4 4-26.8 1.8-.1 2.9.6 4 1.3 1-5.5-2.1-6.9-1.3-12 6.1-4.1-.2-13.6 6.7-17.6zm-94.7 255.9c-3 3.1-5.4 7.6-9.9 7.8 1.6-6.2 5.4-10.4 6.9-16.5-.4.2-.8.3-1.3.4-.5 2.7-3.9 9.3-5.4 6.7l6.6-13.8c-3.7 3.6-6.7 8-9.9 12-.8.4-1.6 0-2.5.3-1.9 2.3-4.3 4.6-6.8 6.9l-4.8 6.6c-9 11.9-18.7 23.3-28.1 34.8-4.4 5.5-10.7 12.7-14.7 17.4-1 1.2-5.6 3.6-2.7 5.4 2.1-3.2 4.8-5.9 8-8 .1 1.5-1.9 2.1 0 2.7 3.3-4.3 6.7-8.5 12-10.7 2.2-5.8 9.4-11.7 13.4-14.7 1.6-1.2 3.7-4.2 5.4-2.7-2.5 5.1-11.8 10.5-9.4 16.1 0-1.4 2.4-1.7 2.7 0-4.1 3.5-9.2 13.1-8 17.4 7.5-7.7 13-17.4 22.8-22.8 9.2-11 17.3-23.2 25.7-35.1-1.4-3.8-2.4-7.8 0-10.2zm-20.4 15.8c-.5 5.3-5.4 6.2-8 9.4-3-3.1 4.8-12.3 8-9.4zm-9.4 21.5c-4.4-3.6 3.7-6.1 2.7-10.7 3.2-2.2 6-5.6 9.4-9.4.9-1 .4-3 1.3-4 1.2-1.3 3.4-4.7 6.7-2.7-4.7 10.9-14.8 16.4-20.1 26.8zm-24.1-486c-3.2.6-2.9-2.4-6.7-1.3.1 1.8-.6 2.9-1.3 4 2 2.1 9.2 2.4 8-2.7zm-6.7 52.2h-4c-.1 4.4-3.8 5.1-2.7 10.7 7.5 1.9 9.7-6.4 6.7-10.7zm23.2 253.5c.4.3.8.6 1.1.8-.4-.2-.8-.5-1.1-.8zM255.2 501.1c-9.3 6.3-20.5 10.7-30.8 16.1-1.4.7-.4 8.5-.3 9.9.4 3.7 1.2 7.4 1.8 11.1.2 1.4 2.1 9.8.6 10.3-1.8.6-3.9-4.4-5-5.2-.2 7.5 1.5 13.9 4.5 20.4-1-2.2-1.8-4.4-2.5-6.6 4.2-4.4 7.8-8.2 12-10.7 2.6 2.1 2 7.6 5.1 9.3 2.5 1.4 9-.1 11.5-.4 3.9-.4 7.5-1.4 11.6-1.4 4 0 7.1 1.3 10.6 1.5l.1.1c3 2.8 16.7 11.5 16.4 15.3-.4 5.3-11.4-1.7-13.1-4-5.1-1-8.7-4-14.6-3.2-5.4.7-11.4 2.4-16.3 4.6-5.8 2.6-6.2 6.1-5 12.1.5 2.3 1 5.1 1.2 7.8-1.5-3-2.9-6.1-4-9.4 3.8 11.4 9.9 20.4 17.4 28.1-2.2-7.1-7.3-11.4-8-20.1 3.1-6.7 9.3-10.3 20.1-9.4 18.8 11.2 35.6 24.4 47.2 42.8 0 0 1.1.9 1.9 3.2.2.3.3.5.5.8-3 6.4-3.1 12.5-5.8 16.8 2.7-4.2 2.8-10.1 5.7-16.4.4 1.8.6 4.3.1 7.7h.6c.1-.4.2-.7.2-1 .2-1.3 1.3-2.6 1.3-4.2-.5-.1-.8-.4-1.3-.5.2-.7.5-1.4.9-2-.6-2.1 1.8-6.5 2.2-8.4-3.2-3.5-4.8-8.6-8-12-3.3-2.8 4 1.8 4 4 .9-.1 1.6 0 2.3.1-1.2-1.2-2.4-2.3-3.2-3.1-6.3-6.1-12.7-12.5-18.2-19.7 6 1.3 11.3 3.9 16.5 6.3-.5-3.8-7.4-8.7-10-11.4 2.6-.6 6.2 1.4 8.6 2.4 2.9 1.2 6.2 2.3 9.2 3l1.8.3c.7.5 1.3 1 2 1.5-.6-.8-1-2-.9-3.6 11 1.4 19.6 3.2 30.8 1.3-8.5 2.6-6.1 16.2-6.7 26.8-3.9-1.1-.7-6.4-1.3-10.7-.5-3.7-3.8-7.3-2.7-10.7-4.9-.9-5.1 2.9-9.4 2.7-1.3-2.6-5-2.9-7.6-4.1 4.2 3.1 8.5 5.9 12.7 8.1.1.2.2.3.2.4-3.9.5-7.6-1.5-11.1-2.7-1.5-.5-3.1-.7-4.6-1.2-1.6-.5-2.8-2.1-4.5-2.5-2-.5-2.2 1.4-1.2 2.9.5.8 2.6 2.5 1.4 4-1.4 1.7-3.8-.6-3.9 2.3-.1 1.8 1.3 4 2.3 5.5 2.3 3.4 5.4 6.1 8.1 9.2 2.3 2.7 4.9 5.4 6.2 8.8.7 1.7 2 7.1-1.3 7.1-2.6 0-7.7-7.3-8.9-1.5-.8 4 2.7 6.9 1.2 11.1-1 2.8-3.8 4.5-6.1 6.1-2.6 1.9-4.4 4.3-6.1 7.2-1.1 1.9-2.5 4.6-4.6 5.6-1.9.9-4.8 1.2-6.9 1.7-8.4 2.1-16.8 3.3-25.4 5 3.7 4 12.2 4.3 17.5 4.2 3.5 0 7.3 0 10.6-.6 2.7-.5 6-2.8 8.5-2.4 1.1.2-2.6 2.8-2.8 2.9-1.5.7-3.1.3-4.7.8-3.4 1.1-6 4-9.3 5.3-4.2 1.6-8.9 2.9-13 4.2 2.5 2.2 6.6 1.5 9.3 3.7 2.3 1.9 2.9 6.7 3.2 9.3 1.1 7.9 1.4 16.4.4 24.3-.3 2.3-1 1.9-1.8.2-.9 2-2 3.8-3.6 5.2-.5-3.5-.7-7.3-2.7-9.4-2.4 4.3-4 9.4-8 12 1.8-2.8 2.5-13.4 0-16.1.1 4.6-1.7 6.6-2.7 8-.5.6-2.3-1.6-2.7-1.3-2.1 1.7 1.1 6.9-2.7 6.7-.8-4.1 1.7-11.5-1.3-13.4-1.6 5.6-5.5-.2-6.7-2.7-.3 1 0 2.6-1.3 2.7-2-8.2-3.1-15.7-1.4-23.8l-.1-.3c-3.5-.9-2.3-6.5-3.8-9.3.3.5.5 1.2.6 1.9l-4-9.1-2.1 19.7-.3 3.6c-.2 2.7-.6 5.3-1 8v.1c-.3 2-.6 4-.9 6.1-.3 1.8-.9 3-1.4 4.7-1 3.3-.6 5.6-3.1 8.3-1.4 1.5-2.8 2.5-4.8 3-5.5 1.6-10.9 1.8-16.5 1.5-5.7-.3-11.5-.5-17.2-.7-4.6-.1-9-1.6-13.6-2.1-3.7-.4-7.6-1-11-2.1-7.2-2.2-14.7-5.9-19.4-11.5-2.8-3.4-5.4-6.5-7.3-10.4-2.5-4.9-4.8-8.5-5.9-14-1.4-7.4-2-15-2-22.4 0-14.6 2-29.5 6.7-43.3-.5 1.4-4.4-.6-4.9-1.2-1.1-1.2-1.2-3-2.1-4.4-3.9-6.7-6 3.8-6.8 6.6-.8 3-2.9 5.3-2.7 8.5.2 2.9.5 5.3.1 8.3-.9 7.7-2.1 15.3-2.5 23.1-.4 8.1.9 14.9 2.5 22.7.3 1.7.6 3.6.9 5.3.7 3.7 1.6 7.9 3 11.4.9 2.2 2 4.5 3.1 6.5 1 1.8 2.7 3.7 3.2 5.7.7.6 1 1.2 1.6 2.1 2.6 1.8 4.5 3.9 7.3 5.4 3 1.6 5.1 3.3 8 4.9 7.1 4 13 7.5 21.3 9 4.7.9 9.6.9 14.4 1.1 2.4.1 4.9-.2 7.3.2 1.7.3 5.2 1.1 6.3 2.5-.9.1-2.6.2-2.6 1.3 6 2.4 12.4 1.9 18.7 1.5 3.3-.2 6.8.2 10-.1 1.3-.2 7.8-2.4 8.1-3.8.4-1.8 1.8-3.3 2.8-4.9.8-1.3 1.4-4.2 3.2-4.3-.6 1.3-1.7 2.8.2 3.5.3-1.5 1.5-2.1 2.7-2.7-.4.8-3.3 5.2 0 5.4-.6-2.6 3.6-6.8 4-4-3.6 4.6 7.5 3.4 8 8-3.2 5.7-10.4 7.5-12 14.7-3.7.6 1.1-7.3-2.7-6.7-2.1 5.1-1.1 2.7-5.4 1.3-2.3 3-3.2 7.5-2.7 13.4 4.8 2.1.8-4.5 4-4 1.3 4.4 2.6-1.5 4-1.3.1 3.4 4.5 2.7 8 2.7 1.6 0 5.6-3.5 7.2-4.4 2.7-1.6 5.5-3.7 8.5-4.7-1.3 2.4-3.3 4.7-4.3 7.2-1.1 2.6-1.2 5.2-2.7 7.7-3 5-7.5 9.1-11.9 12.8-.9.7-1.8 1.4-2.8 2.1-.4 2.2-.3 4.5-.3 6.8 0 3.3.3 6.4.8 9.3.3 2.2 1 5.4.5 7.7-3.4-6.2-3.9 3.5-3.7 5.6.4 3.8 2 7.6 2 11.3-.5-2.1-3.5-6.2-4.3-7.7-1.2-2.3-3.4-7-5.8-7.8-.3-.5-.3-.8-.8-1.2.1 4.6 1.1 7.5 2.2 11.7.8 3 2.9 6.1 3.4 9.1h-.7c.2.5.4 1 .5 1.6-.2 1.5-1.7 1.7-3 2.1.3 1.7.6 3.4.8 5.1-1.1.3-2.1.6-3.2.9 4.1-1 8.2-2.2 12.2-3.7 1.6-.6 3-1.6 4.6-2.1 1.2-.4 2.9 0 3.7-1.3.6-1-.4-3.2 0-4.4 2 1.1 4.5 1.7 6.7 2.6 2.2 1 4.7 2.2 7.3 1.8 2.3-.3 4.6-1.5 6.7-2.6 3-1.6 2.1-3.8 2.4-7.1 1.5.6 3 2.3 3.9 3.6 4.8.3 8.4-.7 11.1-4.4 2.1-3 4.3-8.8 7.6-10.7 1.1-3.5 3.3-4.5.4-7.6-.7-.7-1.6-1.1-2.1-2-.2-.3-.7-3.6-.3-3.5 6.2 1.6 12.4 3.3 16.1 4 0 5.4-8.1 2.6-10.7 5.4 3.8 2.1-1.9 6 0 10.7 4.6.7 4.3 3.6 8 4 8.7 1.1 11-7.3 16.1-12-.4 2.6.8 3.9 1.2 6.3 2.2 1.2 4.7 5.9 8.1 5.2 2.6-.6 5.1-6.8 6.5-9 0 9.1 16.9 9.1 16.6 1.1 1.5.4 2.3 2.3 3.9 2.8 1.1 2.2 6.2 2.4 8.4 3 3.1.8 6.3 1.7 9.3 0 .4-1.9.9-5.7.3-7.6-1-3.3-5.3-4.8-8-6.2-1.2-.6-2.3-1.3-2.9-2.5-.3-.5-1-5.1-.4-5 4.8 1.2 8.9-5.2 12-1.3-.8 2.8-2.8 4.3-4 6.7 1-1.9 8.6 7 9.1 7.7 3.3 4.4 5.1 9.3 10.2 12.3 4.7 2.8 8.5.1 12-2.8 1.9 4.7 6.7 7.8 11.5 8.3 2.4.2 5.3.7 6-1.8 1.7-6.3-6-14.6-11.4-17-4.7-2.1-8.3 2.4-10.7-2.7 2-3.4 3.3-7.4 6.7-9.4 1.1 3.8-1.9 3.5-1.3 6.7 5.7-.7 9.2 1 14.7 1.3-.4.8-3.3 5.2 0 5.4 1.6-2.1 3.7-6.3 6.2-4.4 0-4.7 1-9.2 1-14.1 0-2.3.1-4.9-.4-7.1-.4-2-1.4-3.4-1.8-5.2-1.3-1.2-2.7-2.6-4.1-3.9 8.2 3.3 14.2 8.9 20.8 13.8-7.6-5.6-14.2-12.2-24.5-15.2-.4-2.7-3.6-2.6-4-5.4-2-7.3-10.6-15.3-8-22.8 3.9 7.8 7.6 14.6 16.1 17.4 2.3.7 4.2-1.5 6.7-1.3 4.4.4 9.8 5.8 13.4 1.3-3.1-1.2-5.8-2.7-7.7-5.1-2.3-.3-4.5-.7-6.5-1.4-8.3-3-18.5-13.7-18.1-22.6 3.1 2.3 6.1 8.9 10.7 8.3-.1-2.8-5.5-16.7-.4-17.3.7 1.3 1.3 2.3 2.4 3.1.3 2.6 2.5 5.8 3.6 8.1.5.9.9 1.9 1.5 2.8 8.6 1.1 15 4.4 23.7 5.3 14.4-1.1 26.9 4.7 75-25.4 15.7-16.5 17.8-31.2 21.4-52.2-4.9-.9-1.6 6.4-5.3 6.7.8-.1 1.4-17.9 1.4-19.5 0-5.6-.5-12-4.1-16.6.9 1.2 1.6 2.5 2.2 3.9-1.2-.6-2.1.9-2.8 3.1 0 .3.1.5.1.8.1 2.1.1 4.4 0 6.5-.2 2.8-.9 5.3-.8 8.2.1 3.2-.1 6.5-.1 9.7-1.9 3.2-2.9 9.4-4 18.7-2.5 3.8-4.8 7.8-7.2 11.7-10.2 17.1-33.1 25.7-51.4 30.4-10.3 2.6-24.5 2.5-33.6-3.3-7.4-4.6-11.4-10-12.8-18.7-.8-5-1.4-10.6-1.4-16.1v-.9-2.2c.1-7 .4-23.7-.1-25.1-.1-.3-4.1 8.2-4.5 9.1-.3.7-.6 1.4-.9 2.2 0-.1.1-.3.1-.4-1.7 6-3.4 11-4.8 13.3-.5-.4-.8-.9-1.1-1.5-.2 2.1-.4 4.3-.4 6.6-2-.3-3.9-.9-5.5-1 2.3.1 5.2 1.3 8.3 1.3 4.3 6.4 1.7 19.7 5.4 26.8-2 3.2-6.7-2.1-6.7-5.4-1 2.1-6.6-.3-5.4 4-4.2.6-3.8-3.4-5.4-5.3-4.7.4 2.4 5.9-1.3 5.3-4.4 0-5.1-3.8-5.4-8-2.5 1.4-.3 10.4-5.4 5.4-1.5 1.9.7 7.1-1.3 9.4-9.2-.3-5.9-13.1-10.8-17.8-.7-.2-5.7-1.8-9.3-3-1.3-.4-2.4-.5-3.5-.4.8.7 1.7 1.3 2.5 2 1.6 1.3 5.8 3.9 6.8 5.4 1.3 2-.2 3.9.4 6 .7 2.5 3.6 3.5 3.3 6.7 0-.2-9-4.8-10.4-4.8.3 10.2 19.9 14.6 15.6 26.1-4.1-3.9-10.5-7.7-15.2-10.4-1.5-.9-4.2-.7-4.9-2.5-.5-1.2-.4-1.7 1-1.7 1 0 2.2.4 3.1.7 1.2.4 1.8.3 3 .1.3-3.1-2.5-6-3.6-8.4-.6-1.2-1.3-2.7-1.6-4-.3-1.3-.2-1.5.8-2.3.7-.6.7.1 1-.8.3-1.1-2.2-4.4-2.9-5.3-1.4-1.7-3.1-3.2-4.7-4.7-1.2-1.2-2.1-2.4-2.9-3.7.3-12.7 10.7-6 19.1-5 6.6.7 11.1-.9 16.7-4.3 1.1-4.1-3.8-7.2-4.1-11.5-.4-4.8 2.5-7.6 4.6-11.2 1-1.6 2.5-4.2 2.4-6-.1-2.6-2-2.5-2.3-4.6-1.4-8.1 2.9-12.9-8.4-11.2-3.3.5-6.5 1.4-9.7 1.9-3.9.6-16.8.9-15.7-5.8h.2c0 .1.1.1.1.2-.2-.4-.5-1-1-1.8-2.1-3.8-5.1-12.6-4.2-16.9.6-2.5 2.9-3.4 2.7-6.7-.1-1.6 12.4-8.8 14.1-10 5-3.5 10.2-6.9 15.5-9.9 8.8-4.9 21-12.2 31.5-9.5 6.1 1.6 8.8 6.5 9.2 11.9 1.1-.5 2.2-1 3.4-1.6.2-.4.5-.9.8-1.3.5-5.3-1.1-12.6-4.6-16.5-7.6-8.5-18.4-5.4-27.8-1.9-5.9 2.2-12.1 5.7-17.8 8.6-3.3 1.7-6.1 4.1-9.3 5.9-1.7 1-5.7 4.1-7.4 3.5.1-.6.3-1.1.6-1.7 3.1-5.2.9-3.5 8.6-11.8 5.9-6.3 7.5-8.4 10.4-11.6 1.7-.1 3.5-.2 5.4-.3 20.6-1.1 32.6 3.6 49.1 9.6.2-3.9.2-7.8.2-11.6-.4 1-1.1 1.8-3 1.4.8-3.2 1.7-6.3 2.8-9.1-.1-5.1-.3-10.2-.5-15.2-4.6-7.8-4.4-19.3-2.3-27.9-4.1-2.5-27.4-18.3-30-8.1-3.1 2.5-5.2 6.8-7.2 10.2-1.4 2.4-2.8 4.9-4.4 7.1-1.3 1.8-2.4 4.9-4.4 6-.5 2.2-2.9 4-4.2 5.8-1.3 1.9-2.7 4-3.8 6-1.6 2.9-3.2 5.6-5 8.2-4.6 6.8-9.8 12.8-15.9 18.7-2.4 2.3-4.8 2.8-7.5 4.6-3.2 2.1-6 4.1-9.5 5.9-4.5 2.3-8.7 2.5-13.8 2.8-4.6.3-9 .9-13.7.7-2.1-.1-4.3 0-6.3-.2-2.3-.2-3.8-1.1-6-1.4-3.9-.6-8-1.1-11.9-2.1s-7.8-2.4-11.3-4.2-6-5.6-8.2-8.8c-5.2-7.6-8.9-16.1-12.4-24.5-2.3-5.6-6.4-10.1-6.7-16.1-5.9-5.7-7-16.2-13.4-21.4.2 2.6-2.5-3.2-5.6-2.1zm5.4 298.6c.8 5.9 6.5 6.9 6.7 13.4-6.8 0-7.2-6.2-6.7-13.4zm16 10.7c-2.4 2.5-3.4-1.1-8 0-2.2-4.3.8-7 5.4-8-.7 4.2 4.1 3 2.6 8zm8.1-1.4c-3.8 1.1-3.5-1.9-6.7-1.3-.4-8.9 3.4-13.5 4-21.4 1.6 4.7 3.2 9.2 5.4 13.4-3.3 3.2-4 3.9-2.7 9.3zm0-62.9c-1.5-.3-.7-1.3 0-1.3-.3-1.7-4-1.8-4 0-4.3-7.1 6.9-10 6.7-17.4 3.3-.2 6.5-.2 8 1.3-3.3 6.2-7.2 11.6-10.7 17.4zm129.8 37.5c2.4 1.7 2.7 12.4-2.7 10.7-1.1-5.6 2.6-6.3 2.7-10.7zM444 533.3c.3 9.5-13.7 12-20.1 6.7-5.6-17.5 16-20.5 20.1-6.7zm-1.4 12c-.9 9.9-17.6 10-21.4 2.7 5.4-1.9 15.6 1.5 21.4-2.7zm-94 55.1h-1.7c0-.2-.1-.4-.2-.7.6.3 1.2.5 1.9.7zm-3.7 46.7c1.3-5.8 2.5-11.8 4-17.4 3.1 2.3.5 10.2 1.3 14.7 1.1 3.4 4.7-3.8 6.7 0-2 2.9-2.6 7.2-5.4 9.4.2 10.9-3.4 17.9-5.4 29.5-3.1-4.4-5.8-18.2-2.7-28.1-.2-3.8-2.5-5.6-2.7-9.4 2.3-.5 2.5 1.2 4.2 1.3zm5.4 46.8c1 4.1-1.4 4.9-1.3 8-13.1 1.7-9.7-14.3 1.3-8zm-10.7 13.4c4.6-1.1 5.1 2 9.4 1.3-.1 4.1-11 4.2-9.4-1.3zm-24.4 20.4c3.2-3.1 11.3-10 10-15.2-7.5-.1-12.3 7-16 12.1-.7.2-2 .2-2.7 0 1.7-4.1 4.7-8.1 7.2-11.9 4.9-3.2 11.4-5.3 17.4-6.4.4.1.8.3 1.2.4-.3 1.5-1.7 2.9-1.4 4.5 2.2 0 4.5.7 6.8.9-.8 2.4-2.2 4.6-3.3 6.8-.9 1.8-3.3 2.1-5.1 3-4 1.8-8 4-11.6 6.6-3.8 2.7-9.6 12.3-14.3 12.2 1-5.4 8-9.3 11.8-13zm-10.5 30.5c2.6 2.2 1.7 12.3 0 14.7-2.4.2-2.8-1.6-5.4-1.3-1.1-7.4 5-7.6 5.4-13.4zm2.7 28.1c-7.3.2-8.4-5.9-8-13.4 2.8.4 2.7 3.6 4 5.4 2.2 2 7 4.9 4 8zm28.1-42.8c.1 2.3-1 3.5-2.7 4-3.9 12.3-4.4 27.7-6.7 38.8-7.4-1.1-12.5-4.5-16.1-9.4-2.2-3 2.3-10.9 3.3-13.5 2-5.3 3.4-10.8 3.9-16.5.4-5.3.7-7.4 5.5-9.9 4.1-2.1 8.2-4.9 12.9-4.9 2 0 8.7 1.1 7.9 4.6-.8 4.1-6.1 3.7-8 6.8zm18.6 52c-3.9 0-15.6 1.7-18.1-1.4 2.6-.7 5.3-1.2 7.9-1.9 5.3-1.4 8-3 9-8.6.1-.7 1.9 1.8 2 1.9.5 1.1 0 2.6.5 3.7.9 1.9 4.5 3.3 6.7 3.7 2.2.3 5.4-.7 7.2.5 1.1 3.8-12.9 2.1-15.2 2.1zm44.4-13.2c-2.4-.2-2.8 1.6-5.4 1.3-4-4.7 2.3-7.6 2.7-12 5.3-.8 1.5 7.3 2.7 10.7zm-14.8-79c0 7.6-4.8 10.4-5.4 17.4-2.2-3.6-1.7-9.9-2.7-14.7 2.9-.8 3.9-3.4 8.1-2.7zm-8-53.6c4.3-3 6.7 5.2 14.7 2.7-3.4 1.9-3.8 7-10.7 5.4 1.9-6-4.5-3.5-4-8.1zm-4-38.8c-.9.9-1 2.6-2.7 2.7.4 3.1-.2 5.1-1.3 6.7-7.4-6.9 6.3-13.6 10.7-17.4 2.8-2.5-4.5 5.7-6.7 8zm2.7 25.5c-1.4 3-4.1 4.9-8 5.4v-8c4.1-.8 5.2 1.8 8 2.6zm-5.8-47.1c4.6-3 7-7.3 10.2-11.5.6-.4 1.3-.7 1.9-1.1 2-1.2 3.4-2.5 5.6-3.3-2.4 5.9-6.3 12-10.5 16.6-1.3 1.4-3.1 3.2-4.8 5.2-2.3 1.1-4.5 2.1-6.8 3 1.9-1.9 3.4-4.8 4.4-8.9zm-6.3 142.1c6.5 1.5 17.2 1.2 20.1 8.4.4.1.9-.1 1.2.1.3 1.2 1 1.9 1.1 3.1 3.8 4.2 4.3 6.6 5.1 12.1 1.4 9 6.9 18.8-3.1 25.9-3.1 2.2-5.6 2.2-7.5.7-5.7-4.4-6.7-21.4-7.6-26.2-1.3-7.1-4.5-9.9-8.8-15-1.5-2-6.1-9.3-.5-9.1zm-92.4-194.1c-1 9.4-13.2 13.7-21.4 8-1.1-3.3-1.8-7.2-1.3-12 4.5-1.7 6.1-6.4 12-6.7 6.9.2 6.9 7.4 10.7 10.7zm157.7 147.3zm-179.5 140c0-.1.1-.1 0 0 .1-.1.1-.1 0 0 .1-.1 0-.1 0 0zm178.5-139.9h.9c-.3-.1-.6-.1-.9 0zM248.1 824.6c-.2.1-.5.1-.7.2.3-.1.5-.2.7-.2zm213.7-41.3c.9.6 1.9 1.2 2.8 1.8-1-.6-1.9-1.2-2.8-1.8zm-1.6-1.1c.5.4 1 .7 1.6 1.1-.6-.3-1.1-.7-1.6-1.1zm-60.9-82.3l.4.4h.1c-.1-.2-.3-.3-.5-.4zm27.3-15.2h-.2.2zm-.1 0c-.3 0-.6.1-.9.2.2-.1.5-.2.9-.2zm5.4-201c.1 2.3-1 3.4-2.7 4-1 4.1 3.7 2.6 2.7 6.7 13.5-.4 21.6 4.7 29.3 10.1l-.1-.1c.3-2.1.7-4.3 1.2-6.4 1.9.6 3.9 1.2 5.8 1.5.5-2.1-2.5-2.7-3.8-3.9-.4-.4-.7-.7-1-1.1.5-1.7 1.1-3.5 1.7-5.2 1.5.4 3 .9 4 .5 2.8-1.1.4-5-.9-6.6-.1-.1-.2-.3-.3-.4.7-1.4 1.4-2.9 2.2-4.3 3.8-2.2 4.6-4.8 7.2-8.8 3.1-4.7 6.5-9.2 10.9-12.7 2.6-2.1 5.6-3.7 8.6-5.1.4-2.4.7-4.7 1.3-6.9l-.2.2c-4.4 5.4-4.1 9.4-11.1 11.1 1.2-1.4 2.4-2.7 3.7-4.1-1.6-2.6.6-9.4 4.6-8.7.5 3.7-1.4 4.9-2.8 6.8 2.1-2.4 4.3-4.8 6.4-7.2.5-1.3 1-2.5 1.8-3.6-2-2.5-6.9-2-6.7-6.7 4.3-4.2 7-9.9 10.7-14.7 7.4 3.2 7.9-3.3 10.7-8-8.7-5.6-16.7-11.9-28.1-14.7-.5 3.5-4 4-4 8 3.1 1.8 7.5 2.3 6.7 8-1.5 3.9-5.5 5.2-9.4 6.7-2.8-.8-4.3-2.8-6.7-4-3.2 8.8-9.7 14.4-13.4 22.8 3.4 1.5 6.4 3.4 8 6.7-2.1 5.9-11.2 13.2-17.4 6.7-3.1 7.6-9.5 11.9-10.7 21.4 4.2.2 8 .9 8 5.4.4 5.7-3.9 6.8-6.7 9.4-2.1-2.1-5.3-2.9-9.5-2.8zm60-33.2c-.2.3-.5.7-.6 1 .1-.3.3-.7.6-1zm0 0c0-.1.1-.1.1-.2 0 .1 0 .1-.1.2zm-234 93.5c8.2-.9 2.7-13.8-2.7-13.4-2 3-2.8 13.7 2.7 13.4zm62.9-36.2c4.6-.3 5.8-4 6.7-8-5.4-.5-7.7 2.1-6.7 8zm-5.3 9.4c-.6 2.4-1.4-.6-2.7-1.3-1 4.6 1.5 12.7 0 13.4-2.1-4.6-3.3-10.1-6.7-13.4-2.3.8.1 6.4-2.7 6.7-1.3-1.8-2.2-4-4-5.3-1.4 3.8 2.2 9.2 0 9.4-1.8 0-1.2-2.4-2.7-2.7-1.9 3.8 3.6 6.8 0 8-1.6-2-1.7-5.5-4-6.7 3.2 11.1 7 21.6 14.7 28.1 1.7-4.6-3-9.3 0-10.7 1.7 4.1 3.8 7.1 5.3 9.4.8 1.2-.1 3.5 2.7 2.7.7-1.9-1.6-6.9 1.3-6.7-.1 2.3 1 3.4 2.7 4-.9-4.1-3-13.9-1.3-16.1 1.9 2.2 1.1 6.9 4 8-2.5-8.6.2-22.5-6.6-26.8zm-2.7-13.4c-5 .8-7.8 3.8-12 5.4-4.3-1.3-8 2.3-12 4-2.9 1.3-11 1.6-8 5.4 7.2-5 17.7-6.2 25.4-9.4 2.1-.9 6.6-2 6.6-5.4zm96.4 6.7c-10.8-.8-22.5-7.8-33.5-4 9 1.6 17.1 2.6 24.1 4 3.2.6 8.1 5.1 9.4 0zm-56.3-96.4c4.8.8 4.1-4 4-8-6.4.6-4.2 2-4 8zm14.8 84.4c-3.3-.2-6.4-.2-8 1.3-1.9 1.9.3 6.5 1.3 9.4 5.6-.2 5-6.6 6.7-10.7zm-124.5-17.4c-.7 4.8 9.3 6.6 9.4 2.7-1.9-.3-1.5-2.9-2.7-4-3.8-1.2-3.5 1.8-6.7 1.3zm112.6-138.6c-4.7-1.3-11.3 0-16.3 0-4.1 0-8.5-.4-12.5 0-2.1.2-4.2 1-6.2 1.8 2.4 5.7 4.2 12 5.4 18.9 2.3.5 6 6.3 8 2.7-.8-1.9-5.2-.2-5.3-2.7 2-2.9 1.5-8.3 5.3-9.4v4c3.7 1 2.7-2.7 5.4-2.7-.1 2.3 1 3.4 2.7 4 1.3-4.1 2.2-1.7 4 0 .1-3.4 2.5-4.7 4-6.7 2.6 5 .2 10.2-4 12-4.2-.2-8.1 0-9.4 2.7 6 1.1 8-1.8 13.4-1.3.2-1.6.4-3.2 2.7-2.7 1.8-6.5 5.4-11.1 6.5-18.4-.8-.9-1.9-1.7-3.7-2.2zm140.4 186.8c-.1-4.1.6-7.4 2.7-9.4-.1 5.8-3.6 15.1 0 20.1 1.2-2.3 0-7.2 4-6.7-1.1 4.3-3.8 14-2.7 16.1 1.9-.8.2-5.2 2.7-5.4-.4 5.9-.1 10 2.7 9.4-.4 4.5 1 10.9-1.3 13.4l.1-.1s0 .1.1.1h-.2c5 .1 3.1-6.7 6.7-8 2.7 7.2-5.8 10.2-1.3 14.7-.2-5.5 3-7.7 5.4-10.7-.6 2.9.5 7.5.1 10.6l6.8 3.7c.4-1.7 1.1-2.9 2.4-3.6v4c5.1 2 .3-6 5.4-4 1.7 3.3-3 6.5 0 6.7 1.4-1.2.4-4.9 4-4 .7 1.9-1.6 6.9 1.3 6.7 1.3-8.5 6.2.8 10.7 2.7 3.7 1.6 9.9 3.3 13.9 3.1 2.7-.1 5.8-.7 8.1-1.8-3-.2-5.9 0-8.8-.5-2.3-.4-4.5-1.9-6.4-3.1-1.7-1-4-1.9-5.5-3.1-1.1-.9-7.8-6.9-8.8-6.6-6.1-4.7-10.7-10.2-15.9-16.2-3.3-3.8-6-8.3-7.8-13-1-2.4-1.7-4.9-2-7.5-.2-1.5.1-2.4.4-3.4.1-.2 1.9-.4.7-1.5-3.9-3.5-.3-6.2-4-9.4 0-1.8 2.4-1.2 2.7-2.7-1.8-.1-5.2-5.2-2.7-5.4 0 1.4 2.4 1.7 2.7 0-1.7-.5-2.7-1.7-2.7-4 2.3-.5 3.4 2 4 0-1.9-.8-3.3-2.1-4-4 2-.2 4.9.5 5.4-1.3-.1.5-.4.8-.8 1v-1.3c-1.7-1-4.6-3.3-1.9-3.6.7 0 1.2.3 1.6.7-.3-1.5-.7-2.9-1.4-4-2.5.1-4.6 6.2-4.6 8.6-.4-3.7 2.1-6.3 1.8-9.6-3.5.8-8.1 4.2-12.1 8-.2 8.2-4.3 18-1.5 24.3zm13.5 41.8c-.5-.3-1-.6-1.4-.9 0-.2.1-.3.2-.5l1.4.8c-.1.2-.1.4-.2.6zm84.7 82.6c-.8.8-1.5 1.7-2.1 2.7.5-.5 1-.9 1.6-1.2 1.5-.1 2.1 1.9 2.7 0-1.1-.2-1.8-.8-2.2-1.5zm4.6-6.4zm-.9.4c.3 2.6.9 1.4.9-.4 0 .4 0 .7-.1 1-.1 0-.2.1-.4.1-.1.1-.2.3-.3.4 0-.2-.1-.6-.1-1.1zm.9-.4c0-.4 0-.8-.1-1.2.1.4.1.8.1 1.2zm-56 14.5c-5.1 5.6-8.6 20-5.3 29.4 4.7-6.9 8.6-14.6 9.4-25.4-3.3.5.7-6.1-4.1-4zm-139.2-48.2c-4.7 2.9-9.9 5.2-13.4 9.4 12.8-5.5 25.7-10.9 34.8-20.1-8.7 1.9-14.9 6.7-21.4 10.7zm187.4-30.8c-.2 6.7 2 9.7-1.3 14.7-2.6-3.2-2.6-9-5.4-12-.5 3.5-4.2 3.9-6.7 5.3 0-.7-1.1-1.5-1.3 0 1.5 2.2 4.6 9.6 1.3 12-.4-4.9-3.3-7.4-4-12-3.4-2.4 1.2 6.7 1.3 9.4-.6 5.7 1.7 6.6.2 10.2 3.8 2.4 7.5 3.6 6.9-2.5 3 .3 3.8-2.4 5.4-4.4 2.8-3.3 2-2.7 6.3-2.8h2.3c-.3.2-.6.5-.9.7 5-3.1 4.7-7.1 5.3-12-4.8-.4-6.4-4.2-9.4-6.6zm-133.3 55.1c-3.5 12.3-8.4 29.5-11.1 39.2 2.8 4.8 1.8 21.5 2.6 24.8 4.3-4.6 3.4-14.4 5.3-21.4 4.3 1.5 1 10.6 5.4 12 .9-1.5 1-9 2.7-13.4 2.9-.2.6 4.7 1.3 6.7 3.3-2 1.7-9 4-12 2.9-.2.6 4.7 1.3 6.7 1.9-1.6 2.5-4.6 2.7-8 2.8 1.6.9 8.1 4 9.4 2-1.2-.4-2 1.3-5.4 2.4 1.2 2.5 4.7 4 6.7 2.3-1.2 4.7-5 4 1.3 4.4-3.8 4.3-10 4-16.1-.4-8.5-7.3-17.5-5.4-22.8 4.9-2.7 6 .6 9.4 2.7 3-.6.5-6.6 1.3-9.4 3.5.9 2.8 6.1 6.7 6.7 4.5 2.5.2-.3 2.7-2.7 7.2 5 14.2-10.7 20.1-2.7 2-1.2 4.3-2 4-5.4 5.4 2.9 9.3-6 9.4 0 3.8-.2 1.7-6.4 6.7-5.3v5.3c4.7-.9.1-5 1.2-10.1-3.5-4.4-7.1-8.6-9-10.3 3.7 2.6 6.6 6 9.2 9.7-5.5-7.8-12.3-14.4-25.4-14.7-8.6 3-9.1 14.1-16.1 18.7-5.8-.9-5.4-8-9.4-10.7-4.1 1.7-7.2 4.4-9.4 8-3.4-3.9 3.5-8.9 5.3-12-.2.3-3.2 1.1-3.8 1.4-1.2.7-2.1 1.7-3.1 2.6-1.9 2-3.7 4.4-6.5 5.2.4-.6.9-1.5 1-2.3-1.2 1.1-2.2 2.6-3.4 3.4-.4 1.8-2.2 6.7-4.4 6.7.3-2.4 1.4-4.9 2.7-6.8.7-1 2.6-4.5 3.8-4.6 1.1-.1 1.4.6 1.2 1.4l.2-.2c1.2-1.1 3.1-2.3 3.8-3.7l-3.7 1.2v-.3c-4.6 1.8-8.6 6-12.5 9-2.3 1.7-3.6 3.7-5.1 6.1-.8 2-1.9 3.7-3 5.4zm80.8-120.2c-2.6 1.4-4.9 3.5-6.5 6-.3.5-3.6 7.5-2.7 7.5.7 0 1.7-.2 2.4-.4 1.1-.3 1-.6 1.4-1.6.8-2.1 2.3-4 4.1-5.5 1-.9 2.2-1.7 3.3-2.4 2.1-1.3 4.4-2 6.7-2.5 1.1-.3 6.1-.5 6.3-1.6-4.4-2.4-10.7-1.7-15 .5zm-44.4-9.3c.3.7.5 1.4.5 2.1-.1-1.1 0-2.1.2-2.9-.2.3-.5.5-.7.8zm14.4 72c1.6-.7 3.8-1.6 4.6-1.6 2.2 1.2 4.6 2.7 6.9 4.1 2.9 1.7 6.1 2.8 9.2 4.4 5.6 2.8 10.4 6 17.2 5.7.1-.3.1-.6.1-.9-6-1.4-10.4-4.3-14.8-7.3l-.9-.3c-2.5-1.1-4.7-2.8-6.9-4.5 2.6 1.4 5 2.9 7.4 4.5-3.1-2.1-6.2-4.2-9.9-5.8 0-.2 0-.4.1-.6-2.1-1.5-4.3-2.8-6.8-3.4l-.2-.2c-.2.6-.6 1.1-1.1 1.4-.4-6.5-2.6 1.8 0 2.7-.7 0-3.1 1-4.9 1.8zm39.7-35.1c1.9 2.9-2.5 3.6-2.7 4-.7 1.9 1.7 5.8-1.3 6.7-2 .6-2.1-5.9-2.2-6.7-.4-3.5-.8-5.1-4.6-4.8-.2 3-.2 8.3 1.9 10.1.3 1.8 2.6 10.5 4.1 11.2.3.1.5 0 .8.1 3.1 4.9 8.6 8.8 13.3 11.9.3.2.6.4 1 .6 7.7 4.3 20.6 3.7 23.1-6.1-4 .9-6.4 3.6-10.6 1.2-2 1.6-3.3 3.9-6.7 4 3.4-5.3-.3-3.9-2.7-5.4 1.4-2.3 5.2-8.9 2.7-10.7-.3 2.4-2.3 3-5.3 2.7.7-2.5 7-6.2 4-8-1.2 2-2 4.2-5.4 4 0-2 5-5.5 1.3-6.7-.2 1.1-4.4 4.1-4 1.3 1.8-.9 2.5-2.9 2.7-5.4-2.6-2.5-3.4-.1-6.7 0-.2-2.1.1-4.6-2.7-4zm7-26.6c0 .1-.1.2-.1.3-.2 1.7 3.1 4.1 4.3 4.8 2.2 1.2 4.2 1.9 6.2 3.3 4.3 2.8 7.2 6.1 10.1 10.1.7 1 1.4 2 2 3 1.1 1.8 1.8 3.9 2.5 5.8 1.3 3.7 2.6 7.4 3.8 11.2.4 1.4.8 2.6.9 4.1h.3c-.6-.1.1-14.2-3.4-21.8-.6-1.3-1.4-2.5-2-3.8-.7-1.3-1.3-2.8-2.1-4.1-2.8-4.5-6.4-8.2-11.2-10.6-2.6-1.3-5.3-2.7-8.2-3.1-.9-.1-2.7-.3-3.1.8zM355.8 54.6c-1.2-2.5-2.8-3.8-5-4.3 2.2.5 3.8 1.8 5 4.3zm74.8 285.9c-1 2.6-5.6 14.1-10.2 25.9 4.6-11.8 9.2-23.3 10.2-25.9zm-105.7-75.6c-7.5-5-23.8-3.9-32.1-1.3-3.7 1.2-6.9 3.3-10.5 4.8-.9.4-2.1.6-3.3.8-.9 1.4-1.4 3.2-1.2 5.7.2 3.4 1.9 5.2 5.4 5.4-.7 4.7 2.2 5.9 4 8 28.4-2 53.6-1.2 81.7-2.7 8.6-.4 19-.9 28.1 0 2.4-3.4 6.6-5.9 10.7-4 3.4-8.9-.4-15-3.7-21.2.5 1 1 2 1.6 2.9-1.5-1.5-3.2-2.8-5.4-3.4-.2-.1-.5 0-.7-.1v-.1c.2.5.3 1.1.3 1.8-5.9-.3-10.4-2.1-17.4-1.3.1-.1.3-.2.4-.2h-.1c-4.3.2-7.9 1.1-11.1 2.3-.6 1.4-1.2 2.8-1.3 4.6-8.8 1-7.5 12.1-16.1 13.4-8.3-2.2-13.5-.5-20.1 0-.4-3.7-1.8-7.7-3.2-12.4.5 1.6.9 3.2 1.4 4.7-2.6-2.7-5.1-6.2-7.4-7.7zm-.1 14c-3.7 1.7-6.6 3.3-10.7 1.3-6.6 2.3-14.6 3.2-24.1 2.7-1.3-9.2 1.1-9.1 8-10.7.4-.1 2.6-2.7 2.7-2.7.9 0 1.6 1.3 1.3 1.3 8.7-1.3 24.5-3.3 22.8 8.1zm48.2-9.3c10.1-.5 29.6-5.4 30.8 6.7-1.6 4.6-11 1.5-14.7 4-7.4-.7-17.5 1.5-22.8-1.3-.8-6.2 4.5-6.3 6.7-9.4zm-42-1.7c-.2-.8-.5-1.7-.7-2.5.2.8.5 1.7.7 2.5zm1.7-55.7c.1 1.5.1 2.8.2 3.8-.1-.9-.2-2.2-.2-3.8zm333.5 254.1c-.6-14.5-.4-29.3-1.3-42.8-2.4-35.3-10.7-70.3-21.4-96.4-1.4-3.5-2.4-9.3-6.7-10.7-5.3 3.6-7.7 10.1-12 14.7l-.1-.1c-.6 1.3-1 2.6-1.3 3.6-.4 1.5-.6 3.1-.7 4.7 1.2-1.3 3.1-1.9 6.1-1.4 7.3 6.4 10.9 17.4 13.4 26.8.9 3.4 1.9 7.3 2.7 10.7 1.6 6.7 3.4 14.9 4 21.4.7 7.2-.6 15.3 0 22.8.7 8.5 3.5 17 4 25.4 1.1 18.8.8 33.6 1.3 52.2.7 23.7-.1 53-2.7 83 1.2 2.4 3.2 3.9 4 6.7-.9 6.6.5 20.1 0 32.1-.5 10.3-4.2 22.8 0 29.4.6-24.5 4.7-52.2 6.7-79 .4-5.6 2.3-11.7 2.7-17.4.5-7.7-.4-16 0-24.1.8-17.8 2.2-41.1 1.3-61.6zM347.6 50c-8 .2-7 2.8-9.4 5.4-4.5 11.9-6.6 111.3-6.7 117.8-.1 5 .5 22.3.9 33.8.4 1.8.9 3.6 1.5 5.4 1 2.7 3.6 10.1 6.5 11.6 4.4 2.2 7.4-5.5 8.8-9.2.6-1.6 1.1-3.1 1.6-4.6.5-7.9 1.2-15.5 3.1-21.9.1-4.6-.1-9.3-.3-14.2-1.9-6.4-1.2-12.7-.8-19.6v.4l-.3-11.1c-.4-1.2-.8-2.5-1-4 3.9-10.1-.3-18.2.8-25.6-1 6.7 2.2 13.9 0 22.7-.4-17.9-.6-35.8-.6-53.5 0-10.6.6-21.6-1.7-31.6-.1-.6-.3-1.1-.5-1.7-.5-.1-1.2-.1-1.9-.1zM236.5 167.8v0zm335.8 817.3C641.6 839.2 661.7 691 661.7 691s21-103.6 21.3-217.4c-.3 113.8-21.3 217.3-21.3 217.3s-20.1 148.2-89.4 294.2c-43.9 92.4-150.3 131.8-157 134s-12.7 25.3-15.5 27.7c-9.1 4.2-77.7 4.2-78.4-.7-2.9-9.5-3.8-20.4-14-21.8-15.5-2.2-75.4-31.1-135.4-92.5-43.5-44.6-96-207.9-96-207.9S17.2 614 17 476.4c.2 137.6 59 347.7 59 347.7s52.5 163.3 96 207.8c59.9 61.4 119.8 90.2 135.4 92.5 10.3 1.5 11.2 12.3 14 21.8.7 4.9 69.4 4.9 78.4.7 2.8-2.4 8.8-25.5 15.5-27.7 6.7-2.2 113.1-41.6 157-134.1zm-49.4 54.2c3.9-.5 10.1-7.1 12-9.4 3.6-4.1 5.8-7.1 8-10.7 1.4-2.2 7.6-8.8 2.7-9.4-2.7 4.9-5.4 9.8-8 14.7-5.9 2.3-8.9 3.4-12 8 .6-.9.4 1.8 0 2.7-.8 1.8-1.8 2.5-2.7 4.1zM208.4 108.9c-2 16.4 20.3 93.7 24.1 107.1 1.7 6 7.1 27.1 13.8 50.1 1.1 1 2.4 1.6 4.1 1.5 6.2-.5 2.2-16.8 2.6-22.2.5-6.6-1.3-13-2.2-19.5.2 0 .4.1.6.2 2.3 10.1 4.4 20.2 6.5 30.1-5.2-24.9-10.6-51.6-18.7-75 1.2 3.4 2.2 7 3.3 10.5v1.1c-.6-.3-1.5-.8-2.1-1.2-.6-1.9-1.1-3.8-1.6-5.7-.2.4-.5.6-.9.7-1.7-5.4-2.9-11.4-4-17.4.2 0 .4.1.5.1-.6-2.5-1.2-4.9-1.9-7.3-.8-3.1-1.4-6.3-1.8-9.4-.1-1.5-.2-3-.3-4.4.2 3 .3 6.2.8 9-3.7-5.7-4.9-13.8-6.7-21.4 1.1.4 2 .9 2.7 1.7-1.5-3.9-3.5-7.6-5.3-11.4-2.3-3.5-4.7-8.5-5.5-13.1-1.8-2.7-4.3-4.3-6.9-6.2 0-.1 0-.1.1-.2-.4.8-.7 1.6-1.2 2.3zm1.2-2.4c.1-.4.3-.8.4-1.2-.2.4-.3.8-.4 1.2zm252.1 202.7c2.4 3.1 4.2 4 3.1 7.4 11.7-6.1 26-1.3 37.2 3.6 3 1.3 5.8 3 8.6 4.7 2.4 1.4 5.4 2.7 7.5 4.4 12 9.5-3.2 32.7-9.9 42 4 .9-7.9 12.5-9.4 13.4 2.8 2.1 7.4 2.4 8 6.7-5.4-1.2-13.6-9-16.1-1.3 7.9 3.7 16.3 6.9 22.8 12 1.1-4.8 6.9 3.4 8-1.3-3.9-2.8-9.3-4-10.7-9.4 4.9-.9 5.1 2.9 9.4 2.7 3.9-9.4 13.6-22.1 18.8-32.1 1.4-2.8 3-4.2 4-6.7 5.5-13.7 4.7-23.2-2.7-32.1 1.1 1 2.1 1.9 3.2 2.9-4.5-6.8-12.2-6.8-19.2-10.5-1.9 3.3-4.9 3.7-10.7 2.3-3.4-3.5 3.4-4.5 4-8-.1.5-.3.9-.6 1.3-.9-.5-1.9-1-2.8-1.6-.5.2-1.1.3-2 .2 0-.4 0-.9.1-1.3-2.5-1.4-5.1-2.7-7.8-3.9-.5.3-1.1.5-1.6.3-1.2-.3-1.9-1.1-2.1-2-7.8-3.3-15.9-5.8-23.5-6.9 0 .1.1.2.1.4-3.1.3-5.6-.1-7.4-1.1-4.2-.2-7.5.1-11.1 2.2.3 4.8-.2 7.8 2.8 11.7zm-79.3 145.1c-2.7 2.2-3.1 6.7-2.7 12 8.1 1.1 10.8-11.3 2.7-12zm-1.1-67.4c2.3-6.2 4.6-12.3 7.1-18.3-2.5 6-4.9 12.1-7.1 18.3zm5.5.5c.1-.3.2-.6.3-.8-.1.2-.2.5-.3.8zm24.9 1.1c-1.3 3.3-2.2 5.7-2.5 6.9-2.7 8-10.3 44.6-20.1 45.5-3.3-2-8-2.7-9.4-6.7 1-4.1-1.4-4.9-1.3-8 .2-11.4 3.5-22.2 6.7-33.5.3-1 1.1-3.4 1.7-5.3l-1.5 4.5c-1.1-1.7-2.4-3.2-4.1-4.3 0 0-.1 0-.2-.1-8.9 24.5-15.7 51.1-16.1 84.2-.6 7 11 9.8 18.7 9.4 7.2-.4 12.8 1.1 14.7-9.4 1.3-13.2 10.4-23.5 6.7-37.5 2.6-6.9 10.8-30 15.9-44-.5-.3-1.1-.6-1.6-.7-1.8-.7-4.7-.9-7.6-1zm-25.3 83.2c-8.6.1-11.5-5.5-14.7-10.7.2-5.6 4.8-6.8 6.7-10.7 2.2 2.2 7.9 1.1 12 1.3 3.7 7.1 3.5 17.5-4 20.1zm-4-30.8c4.1.4 4.8 4.1 10.7 2.7-2.1 4.2-11 2.9-10.7-2.7zm-1.4-53.4c.1-.2.2-.4.2-.6 0 .2-.1.4-.2.6zm11.6-29.2c1.2-2.8 2.3-5.6 3.5-8.3-1.2 2.7-2.4 5.5-3.5 8.3zm-4.1 9.9c1.2-2.9 2.3-5.7 3.5-8.6-1.2 2.9-2.3 5.7-3.5 8.6zm3.5-8.6c.2-.4.4-.9.6-1.3-.2.4-.4.8-.6 1.3zm-3.7 9c.1-.1.1-.3.2-.4-.1.1-.1.3-.2.4zm51.9 523.3v0zm-70.1 107.8c-.1.1-.3.2-.4.4l.4-.4zM535 762.2c-1.4-.5-3.2-1.6-1.3 0-4.4 9.6-9.9 18.6-14.7 28.1-4.9 9.7-8.2 20.8-14.7 29.5-4.8 19.3-15.4 32.8-22.8 49.5-8.4 7.5-13.8 18.4-20.1 28.1-4.9 7.5-10.3 15.6-14.7 21.4-1.8 2.3-3.3 6.1-6.7 6.7-.2-12.3 0-24.1 4-32.1-1.2 3.5 1.9 2.7 4.3 2.6-1.4 0-3 .3-3.9-.2 0-3 .7-6.2.9-8.1.4-3.2 2.2-10.6.2-13.4-.2 0-.3 0-.5.1-.3.5-.7 1.1-1 1.6 0-.3-.1-.6-.1-.9-1 1.1-1.6 3.1-1.8 4.1-.6 2.3-.3 4.7-.5 7.2-.1 1.2-.4 6-1.4 6.9v-.1c-.3 2.2-1.4 4.7-1.5 7-.4 9.4-2.6 21.5 0 29.5-2.1 9.5-9.7 13.5-13.4 21.4-6.1-2.7-1.2-9.8-1.3-14.7-.4-12.2-2.6-26.7 0-38.8 1.6-1.1 3.6-1.8 6.7-1.3-.8-4.8 1.6-6.5 2.7-9.4 1.6 2.5 2.8 8.8 4 1.3 0 .2-.1.4-.1.6-.3-2.7-.2-5.6-.2-6.6 0-4.5 0-9-.5-13.4-.3-3.7-2.7-6.7-4.5-9.9-5-1.1-7.6 5-9 8.6-2 4.7-2.1 8.9-2.1 14-.1-2.3-1.2-4.6-.7-7.1.3-1.7.9-3.2 1.1-4.8-.7 2.4-1.6 4.6-2.8 6.6 0-3.5-.4-6.9-.7-10.4-.3.4-.6.9-.8 1.5-1.1 3-1.2 6.3-1.4 9.5-3.6-1.2-3.7-6.7-3.9-10-.1-1.7 0-3.5.2-5.3 0 .1 0 .3.1.4-.5-3-.3-6.6-1.2-9.3-.7-1.3-1.6-2.8-2.3-3-1.9-.5-3.9 2.5-4.9 3.7-2.7 3.3-3.6 7.8-4.8 11.9-.4 1.2-1.1 6.1-2.3 8.5.2-1 .5-1.9.8-2.8-1.1 3.3-1.7 7.2-1.3 12 4.6 3.3 12.1 12.3 18.7 5.4.4-3.5-5.2-1.1-4-5.4 3.5-3.6 4 1.6 8 1.3.2 20.5 1.9 48.8 1.3 72.3-4.5 2.6-3.6 10.7-10.7 10.7-6.4 10.1-10.7 22.4-24.1 25.4-3-14.7-3.5-35.2-4-54.9-.1-2.4 1.5-2.8 1.3-5.4-.6-13.7-3.7-25.7-1.3-38.8 3.2-.4 2.5-4.6 6.7-4-.1-3.5-5.7-1.4-4-6.7 1.3-1 2-2.4 2.7-4 5.9-.2-.6 3.8 2.7 5.4 3.7-2.1 1.5-10.1 4-13.4h1.4c-.1-1-.1-1.9-.1-2.9.1-1.6-.3-2.7-.5-3.8.1-.2.3-.4.4-.6-1.1 1.6-2.5 3.5-2.5 4.6v-5c-.1.1-.1.2-.2.3-2.4-1.9-2.7-5.6-3.9-8.3-1.1-2.5-2.8-5-4.7-7-6.4-6.4-13.7.3-16.3 6.7-1.5 3.8-1.9 8-3 12.1 0 .1-.1.2-.1.3-.4 5.6-2.1 10.1-1.3 16.9 1.4 4.8 8.5 4 10.7 8 4.1 20.3 6.6 44.2 5.4 66.9-.4 7.1-.5 15 0 21.4-3.7 2.6-7.4 5.1-13.4 5.4-4.2-3-.8-13.5-5.4-16.1-.5 9.3-2.9 16.7-8 21.4-12.6-6.6-3.5-36.1-10.7-48.2-1.1 14.9 4.7 33.1-2.7 45.5 3.8 2.9 7.7 5.7 12.2 7.9-1.1-.5-2.1-1.1-3.2-1.7 2.6 1 5.3 2 8 2.6 4.7 1.2 10.2 1.6 15.5 1.3-.1.2-.2.5-.4.7 1.7-2.3-1.8-5.5 1.3-8.3 1.3 0 1.6-1.1 2.7-1.3 4.7-.2 4.4 4.5 8 5.4 0-1.8 3.7-1.7 4 0 0-.1-.1-.1-.1-.2 7.7-4.4 11.8-12.4 19.1-15.5-3.2 3.6-6.4 7.1-9.7 10.6 8.9-9.1 16.9-19 25.3-28.6 1.4-3 2.8-5.7 5.7-6.4 3.4-3.7 6.9-7.3 10.6-10.7 9.3-16.6 19.8-32 32.1-45.5 4.6-11.4 11.7-21.1 17.4-32.1 3-5.7 4.9-11.5 8-17.4.5-.9 2.1-1.4 2.7-2.7 1-1.9.5-3.5 1.3-5.3 4.2-9.1 9.8-17.5 13.4-25.4 2.8-6.2 4.1-12.6 6.7-18.7 1.2-2.8 2.8-5.3 4-8 4.2-9.9 8.2-17.8 11.9-26.9zM443.3 869c.2 2 .4 4.1.5 6.1-.1-2-.2-4-.5-6.1zm-72.9 130.4l-.3.3.3-.3zm69.7-108.5c.1.3.1.7.1 1.1 0-.4 0-.8-.1-1.1zm-69.7 108.5zm-19.6-2.8c1.1.5 2.2 1 3.4 1.4-1.2-.4-2.3-.9-3.4-1.4zm44.8-6.6l-3.4 3.4 3.4-3.4zm-45.2 6.4c.1.1.3.1.4.2-.1-.1-.3-.2-.4-.2zm89.8-103.3c0-.2 0-.4.1-.6-.1.2-.1.4-.1.6zM58.1 676.5c0-.4 0-.8-.1-1.2-.1.4-.3.8-.4 1.2.2-.1.4 0 .5 0zm237.6 195.9c.1-.5.2-1.1.3-1.6-.1.5-.2 1.1-.3 1.6zm43.9 53.1c2.3.8-.1 6.4 2.7 6.7-.2-15 .1-31.8 1.3-41.5 8.3-1.7 11.4-8.6 14.6-15.2-.8-2.3-.5-5.6-1.2-7.5-1.9-4.9-3.1-.6-3.3 2.5-2.1-.7-1.7-4.3-1.8-6.2-.1-2.8-1.1-4.4-2.3-6.7-3.8-7.3-11.3-13.5-17.9-5.1-2.8 3.6-5.1 6.1-5.1 11.1 0 4.1-.1 8.2-.3 12.3-3-.5-4.5-16.4-8.8-13.2-.2 1.1-.8 2-.8 3.2-3.3-4.5-2.4-12.5-10.4-11.8-2.9.2-4.8 2.8-5.9 5.5-1 2.5-2.5 6.2-2.2 9.1l-1.2-2.3c0 .2-.1.3-.1.5 0 2.8-.2 5.5-1 7.7-.2.7-.5 1.3-.7 1.8 0-.9.2-2.4.5-4-.5 2.4-.7 4.5-.3 4.9-.2-.1-.3-.3-.4-.4-.6 1.4-1.2 2.7-1.4 4.7-.3 3 .6 5.8.3 8.7-2.1-3.9-2-9.2-4-13.2-1.2-2.4-4.6-11-8-7-.8-2.1-1.4-8.1-4.3-8-5.4.2-3 11.7-2.3 14.5.9 3.6 1.8 7.4 2.8 10.9 0 .1.1.3.2.5-1.1-1.2-2.1-2.6-2.9-4 3.4 6.3 10.8 11.5 18.7 9.4 2.6 11.3.8 26.8 1.3 40.2-.7 3.5-4.9 11.1 0 12-.2-4.2 0-8.1 2.7-9.4 3.5 4.2 1.7 5.4 2.7 12 1.9 3.5 4.3 6.4 4 12 2.3 3 7.6 3.1 8 8 3.6.5 5.9 9.1 9.4 5.4-6.3-2.7-8.1-9.8-10.7-16.1-8.3-2.6-7-10.9-8-20.1-.6-5.6-3.5-11.2-4-16.1-1.2-12.2-1.3-26 2.7-34.8 5.2 3.5 12.2-.6 17.4-1.3 3.4-2 2.1-8.6 6.7-9.4 3.1 4 2.6 10.5 9.4 13.4 4.4 23.5-5.4 53.8-6.7 80.3-1.9 1.6-2 5.1-4 6.7.9 1.5 4.4 6.9 5.4 4-1.3-8.8 2.3-20.5 4-32.1 1-7.9-.2-17.5 5.2-22.6zm14.7-50.9c-.9 4.1-.9 2.6 0 6.7-2.8.6-3.5-.9-5.4-1.3 1.6-2 1.2-6 5.4-5.4zm-58.6-2.1s0-.1 0 0c0-.1 0 0 0 0zm78.7 203c3.4.6 1.8-1.9 2.7-4 1.8-4.3 3.3-8.3 4-13.4v-13.4h-10.7c-3.3 4.8-2.3 13.7-5.4 18.7-3.7.6 1.1-7.3-2.7-6.7 0 1.3-2.3 1.7-2.7 0-.6-2.6-.9-5.4-1-8.2-7.1.3-13.7 0-19.7-1.8.2 7.2-.2 14.2-2 20.7 3.8.2 3.7 4.4 6.7 5.4.2-2.5.9-4.5 2.7-5.4 0 2-.5 11 1.3 6.7.5-4.4 1.2-8.7 5.4-9.4-.5 4.5-2.3 12.6 2.7 13.4-1.8-4.6.7-11.4 4-14.7 3.2 1.7-.7 10.6 2.7 12 1.6-4.2 1.1-10.5 5.4-12 .8 2.4-1.6 7.9 1.3 8 1.3-4.1 1.6-9.1 5.4-10.7-.5 7.3-1.3 8-.1 14.8zM286.2 262c-2 2.8-5.2 4.2-7 7.2 1.7-3 5-4.4 7-7.2zm-57.8 184.3c-2.4-1.2-2.2-4.9-5.4-5.4-3.9 2.7 2.3 10.2 5.4 5.4zm394.3 334.2c-.2 1.1-.4 2.1-.6 3.2.2-1.1.4-2.1.6-3.2zm-520.1 25.8c-2.3-7.9-4.5-16-6.7-23.8-1.5-5.4-2.1-15.8-7.3-18.9-.1.3 0 .6-.1.9-4.7 2.8-3.3 13.5-3.3 18.2 0 6.8 1.7 12.7 2.7 19.2 2 12.4 5.2 24.4 7.8 36.4.7 3.3 1.5 6.7 1.7 10.1 0 .9 0 1.8-.1 2.7.9 3.4 1.7 6.8 2.7 10 2.3 7.4 4.5 14.6 6.7 21.4 3.4 10.8 7.9 20.2 10.7 30.8 2.3 2.1 3.9 5 5.3 8 4.3 9 7.5 18.6 12 27.6 4.5 8.9 9.3 17.6 14.4 26.1 5 8.5 10.2 16.8 15.3 25.3 4.4 7.2 8.4 18.4 15.5 23 .5.9.4.8 1.4 1.3 1.1 2.4 4.9 4.5 6.9 6.3 2.7 2.5 4.9 4.7 7.4 7.1 4.5 4.3 9.3 8.8 14 12.9 10.9 9.5 21.1 19.4 33.4 27 10.7 6.6 21.4 12.7 31.7 19.4 10.5 6.9 22.1 12.8 35 14.4 1.1.1 1.9.6 3.1.4.5-3.1-6-4.1-7.4-7-1.2-2.5.5-4.2 2.6-5.3 3.9-2 2.4.3 4.8 2.1 1.7-3.3.1-10 4.1-12 .5 7.9-.9 17.8 4 18.7.5-8.9 1.7-17.1 5.4-22.8-.7 12.3 3.6 19.6 2.7 32.1 5.8 1.6 4.9-.3 10.7 1.3 1.9-2.2 1.1-6.9 4-8v8c5.8.4.6-10.1 6.7-9.4.8 2.8-2.2 9.3 2.7 8 0-5.3 1.3-9.4 4-12 .1 6.1 0 12.5 4 14.7 1.9-7 1.2-16.7 6.7-20.1v18.7c5.4-.4 1-10.6 6.7-10.7.4 4-1.5 10.4 2.7 10.7-.2-3.4 2.1-4.2 4-5.4-1.1 8 8.5 2.3 12 2.7-.4-10.7.8-19.8 5.4-25.4.8 3.2-1.7 9.7 1.3 10.7.1-4.8.6-9.2 4-10.7.8 2.8-1.7 8.8 1.3 9.4 0-4-.1-8.2 4-8-.1 2-.7 4.8-.2 6.6 5.6.3 10.7-2.4 15.8-4.2 11-4 21.3-8.8 31.8-13.4 9.3-4.1 19.3-8.6 27.7-14.4 2.5-1.7 5-3.8 7.5-5.5 1.4-2 4.3-4.2 6.3-6 7.5-6.6 14.6-15 21.3-22.8 3.3-3.9 6-7.7 9.7-11.6 3.4-3.5 9.5-8.5 10.7-13.2 2.2-1.7 3.1-6.2 5.7-7.6 1.8-4.7 5.9-8.8 8.5-13.2 6.7-11.2 12.4-23 17.7-34.9 2-4.6 3-8.8 5.5-13.2 3-5.2 5.1-10.9 7.3-16.6 1.2-3.1 2.9-6.4 4-9.4 6.9-18.1 14.6-36.5 19.4-55.2 1.3-4.9 3.5-9.5 4.8-14.4 1.1-4.3.4-8.2 1-12.6 1.4-9.2 2.5-18.5 4.2-27.7.7-3.8 2.1-8.4 2.7-12 .4-2.6.9-5.3 1.4-7.9-.3-3.5-.5-6.1-.6-6.1-5.1-.9-10.4 21.6-11.1 26.5-1.8 11.1-4.9 21.9-6.7 32.9-1.4 8-3 17.5-5.9 25.1-5.4 14.1-13.2 29.1-18.6 43.3-5.3 14.1-11 26.9-19.2 39.7-13.2 20.6-25.2 38.4-41.2 55.3.3-.4.5-.7.8-1.1-1.9 2.8-3.9 5.5-5.5 8.3-.8.5-1 .4-1.5 1.4-.3.1-.5-.1-.8.1-.5.8-1 1.6-1.5 2.2-6 4.1-9.5 10.9-15.3 15.3-3.8 2.9-7.4 6.2-10.9 9.8-1.9 2-4 4-6.6 4.9-2.2.8-4.8.3-6.7 1.9-.7.6-2.8 1.2-3.1 1.7-.7.9-.1 3.7-.8 5.1-1.8 3.6-5.8 5.8-9.2 7.8-2.3 1.4-4.8 2.5-7.2 3.8-2.2 1.2-5 3.3-7.5 3.5-1.5 1.9-5.8 3.2-8 4.4-3.8 1.9-7.3 3.9-11.1 5.7-8.1 4-18.5 7.6-18.7-5.2 6.2-2.3 12-5 20.1-5.3 3.2-3.1 6.9-5.6 13.4-5.4 8.6-8.3 20.3-13.6 33.5-17.4 1.4-1.8 1.3-4.9 2.7-6.7.8-.8 1.7-1.6 2.6-2.4-5.6 2.3-11.7 3.9-18.8 4.4-7.3 3.7-14.9 6.7-21.5 9.4-10.5 4.4-22.3 13.2-34.5 13.9l-.1.1v-.1c-2.1.1-4.2 0-6.3-.4-1.1-.7-2.3-1.9-3.6-3.2.1-2.7.3-5.8.6-9.7-1.2 17.2-.6 19.8 0 37.5-2.8.4-.3 5.9-4 5.4-5.2 3-6.2-1.6-12-1.3-6.3-1-9.2 1.5-14.7 1.3-7.4-5.4-15.9 1.4-26.8 0-5-8.9 1-26.2-5.3-36.1-6 .7-4.1 9.3-6.7 13.4-2-3.8-1.5-10.1-4-13.4-6.1.8-8.3-2.4-14.7-1.3-6.8-4.1-15.1-6.7-22.3-10.4-.6.7-1 1.5-1.1 2.4 6.5 1.2-14 1.9 18.2 18-1.1-.3-2.3-.5-3.4-.8 6.3 1.2 11.7 3.4 16 6.6 1.9.8 3.8 1.7 5.9 2.5 3.1 1.3 1.5 1.2-2.5.4.4.4.9.8 1.2 1.3 3.2 1.3 8.5.4 8 5.4-3.2 1.8-6.8 9.4-9.4 4-1.5 2.5-1.7 6.3-2.7 9.4-3-1-.5-7.5-1.3-10.7-4.2-5.2-12.6-6.1-21.4-6.7-6-3.1-11-7.4-17.4-10.7-2.6-1.4-5.5-2.4-8.4-3.6-1.8-.6-3.7-1.3-5.7-2.3-2.1-1.1-4.2-2.4-6.2-3.7-4.5-.6-4.6-1.2-10.4-2.5-4.6-4.3-8.9-8.9-16.1-10.7-2.4-3.1-5.1-6-7.9-8.8-3.7-2.6-7.3-5.3-10.6-8.4-7.9-7.5-13.8-17.9-20.2-26.5-3.5-3.7-6.7-7.6-9.4-11.9-2.9-4.1-4.6-7.7-6.3-12.7-.2-.5-.3-.9-.5-1.4-14.2-12.5-21.6-31.9-28.1-52.2.6-.1 1.1-.1 1.5.1-.7-1.3-1.4-2.5-2.1-3.7-10.6-13-15.3-31.8-23.5-47.3-4.8-19.7-13.1-36-16.1-57.6 10.3 26.4 21.1 52.2 31.2 78.8-9-23.8-18.7-47-28-70.5-1.2-3.5-2.2-7.6-3.4-11.7zm40-347.5c1-.2 1.9-.4 2.8-.5 27.1-2.7 51.9 6.9 65.6 20.1 3.6 5.3 3.1 14.7 6.7 20.1 2.5-3.2-1.1-7.1 2.7-10.7 1.8 4.4 1.8 10.7 2.7 16.1-3.3 2.6-4.8-1.3-6.7 2.7.2 3.4 2.4 4.7 4 6.7 6.6-7.5 18.7-12.5 26.8-16.1 2.9-1.3 9-.6 9.4-5.4-2.6-5-18.3 2.2-18.7-8-.2-6 6.5-5.1 9.4-8-6-8.3-10.4-18.2-17.4-25.4-1 3-7.5.5-10.7 1.3-.8-2.8-3.3-3.8-2.7-8 .8-2.8 2.6-4.6 5.4-5.4-3.6-7.1-9.3-12.1-13.4-18.7-6.8 2.8-17.7 1.7-17.4-6.7.6-1.5 5.9-6.9 2.7-4-10.7 5.3-20.5 11.7-28.1 20.1l.4-.4c0 .1.1.2.1.2 2.1-.5 2.7 2.3 2.5 4.7 2.4 4.4 5.3 9.4 6.8 14.2 1.9 1.2 4.5 1.6 4.9 4.3.9.5 1.7 1 2.6 1.5 1.2.4 2.5.7 3.6 1.1 1.7.6 3.3 1.6 5 2.7 2.5.9 5 1.8 7.3 2.4-2.7.2-5.1-1.1-7.3-2.4-2.9-1.1-5.9-2.3-8.6-3.7-.9-.2-1.7-.4-2.6-.7v.2c-4.7 1.3-7.3.6-10.4-1.5-8.9.1-17 3.1-25.2 6.5-.8.1-1.5.4-2.2.7zm32.7-11.2zm-.5-.4l-.6-.6c.1.2.3.4.6.6zm.5.4c-.2-.1-.4-.3-.6-.4.2.1.4.2.6.4zm30.4-32.1c-3.6-.8-3.3-5.6-8-5.4-1.5 5.1 5.1 9 8 5.4zm97.7 52.2c6.6-2.7 3.2-12.3-4-12-.3 6-3.2 9.6 4 12zm-37-74.7c.3.8.6 1.6.8 2.4 3.1 9.1 4.8 19 7.4 28.3 3.7 13.4 7.7 26.7 12.5 39.8 1.1 3 2.6 6.1 3.5 9.2.7 2.6.4 4.6 2.6 6.5 4.4 3.7 9.7 2.8 15.1 2.3 5-.5 11.1-2 11.1-7.8 0-5.4-.5-10.9-1-16.3-2.5-23.3-8.1-46.4-14.8-69-1.6.4-3.1 1.1-4.4 2 3.7 15.9 8 40 6.9 43.8-1.7 5.6-4.3 6.3-9.4 8-2.8-2.7-6.9-7.2-8-9.4-3.5-6.4-5.3-13.9-6.7-18.7-2.3-8.2-3.2-16-5.4-22.8.2.7.4 1.5.6 2.2-1-.7-2-1.3-3.3-1.4-2.8-.2-5.1.9-6.8 2.8-.2-.5-.4-1.2-.7-1.9zm31.6 57.3c7-.8 9.8 2.7 14.7 4-.5 6.4 2.8 9.7 0 14.7-4.5 4.3-15.5 3.1-18.7-1.3-1.3-8.3-.2-12.2 4-17.4zM74.2 688.9c-.4-1.4-.7-2.9-1-4.4-3.9-.5-5.4-3.5-8-5.4 0 .3.1.5.1.8 3.1 3 5.8 7.1 8.2 11.6.1-.8.4-1.7.7-2.6zm88.6-266.2c.7 1.1 1.3 2.3 1.9 3.4.3 0 .6.1.9.1 7.6-6.2 13.2-14.5 22.8-18.7 0-.7-1.1-1.5-1.3 0-11.9 4.6-21.1 11.9-29.5 20.1 1.6-1.8 3.4-3.4 5.2-4.9zm407.4-232.3c-1-.8-2.1-1.6-3.3-2.4.9.4 1.9.8 2.9 1.2-3.3-1.2-5.8-3.1-10.7-2.7-1.6.1-3.9 5-4.6 6.1-2.2 3.7-4.1 7.7-6 11.6-9 19-16.6 38.7-24.4 58.2-1.5 3.6-2.9 7.3-4.4 10.9 2.1 3.7 5.8 4.3 12.2-2.5 1.6-1.7 2.5-7 3.4-9.1 2.1-4.6 4.4-9.2 6.9-13.6 3.8-6.8 7.2-13.5 11.1-20.9 2-3.8 3.8-8.8 5.9-13.3 1.1-4.1 3.6-7.7 5.2-11.3 1.1-2.5 8.1-9 5.4-13.4.2.4.3.8.4 1.2zm29.1 65.8c-8.1-12.4-18.5-22.5-29.4-32.1-1 4.1 1.4 4.9 1.3 8 3.7 1.3 5.7 4.1 9.4 5.4.2 5.2 5.4 5.3 6.7 9.4 5.3 2.2 8.8 6.4 12 10.7.1 2.3 2.3-.7 0-1.4zm41.9 244.5c.2 4.3.3 8.6.4 12.8-.8 16.5-1.1 29.5 0 33.5-.2 6.8-.3 13.6-.5 20.4.6-22.4 1.3-44.4.1-66.7zm-38-168.1c1.2 1.7 4.4 1.5 5.6 3.3 6 .3 8.1-1.1 10.5-6.5 1.8-4 2.5-9 4.8-12.8-.7-.1-1.4-.2-2-.4-.5-5.7 3.8-11.1 4.5-16.2 3-2.6 5-10.8 7.1-14.9 3-5.6 5.8-10 7-16.4.1-.7.2-1.4.3-2.2 1.3 6.9-7.7 26-11 32.5 3.4-6.8 13.2-27.6 10.7-33.5-12.8.2-32 39.5-37.6 52.1.6-1.3 1.3-2.9 2.2-4.7-1 3.9-2.3 8-2.7 11.9-.1 2-.6 6.2.6 7.8zm-29.9-92.5c.3.2.6.3.9.5-.1-.2-.3-.3-.4-.5h-.5zM509.2 298c2-3.9 3.7-8.4 4.4-10.1-.7 1.7-2.4 6.2-4.4 10.1zM189.9 165.4c-6.6 4.1-12.7 8.8-19.4 12.8-3.7 2.2-8.3 4.6-12.3 7.5-2.8 2-5.4 4.2-7.1 6.7-2.1 2.9-.2 6.3 1.2 10.1-1-2.8-2.3-5.5-2-7.8 0 .1 0 .2.1.4.5.2 1 0 1.5.2.4 2.7 1 5.4 1.9 8 1.7-2 4.7-3.2 6.7-4.5 2.7-1.6 5.5-3.6 7.9-5.3 5-3.5 10.4-6.5 15.4-10.1 5.5-3.9 10.8-7.6 16-11.9 8.2-6.7 7.8 4 12.9 7.7-1-3.6-.2-7.8-1-11.5-.5-2.5-.3-10.7-1.9-11.7-2.7 2.3-6.5 2.6-9.8 4.1-3.5 1.4-6.9 3.3-10.1 5.3zm180.3-33.8c-1.1 3.7.3 10.2.4 12.9h1c.4-13.1 31.1-6.8 38.7-4.8 9.5 2.6 25.3 4.6 30.7 13.6.6 1 .9 2 1.1 3.1-.2-2.7-.4-5.5.3-7.7.7-2.3 3.8-5.3 3.3-7.8-.6-3-4.8-2.9-7.2-3.4-6.8-1.4-13.5-3-20.3-4.3-14.9-2.9-29.9-4.7-45-4.2-1.7.1-2.5 1.2-3 2.6zm-48.5-4.1c-8.8-.3-31.5 3.8-34.4 4.1-8.8.9-17.6 4-25.4 6.7-.2.1-.5.2-.7.2-6.1 2.2-12.1 5.8-18.4 7.4-.1 0-.2 0-.4.1.5 2.4.9 4.9.6 8.2v.4c.1.1.2.3.3.4 1.3 2.6 3.6 6.9 3.2 10 3-3 1-8 3.6-10.9 2.3-2.7 36.8-10.1 44.1-11.6 6.1-1.3 11.2-1 17.5-1 4.8 0 5.6 1.6 8.7 4.6.4 1.2.9 2.3 1.8 3.1 1.8-1.9.4-7 .3-9.5-.2-4.2.1-8.1-.8-12.2zM178.9 382c-3.1.4-1.5-3.9-4-4-.2 4.7-4.4-2.8-4 1.3 1.6.2 1.5 2.1 1.3 4 2-.7 6.9 1.6 6.7-1.3zm-78.7-34.9c1.4 2 2.7 4.1 4 6.1-1.3-2-2.6-4-4-6.1zm-44.5-72.2c-4.2 2.9-2.3 12-2.7 18.7 2.7 6.5 9.6 15.4 11.8 23.7l-.3-1.2.6.1c10.4 10.4 16.9 24.9 24.2 37.5 4.6 4.5 9.2 9.2 15.4 7.3.5-2.7-.7-5.7-1.7-7.9-.8-2-1.8-4-2.9-5.9-1.5-2.2-2.9-4.4-4.3-6.6-.8-1.4-1.5-3-2.2-4.5.2.4.4.9.6 1.3-5.8-8.6-12.7-16.9-18.7-24.7-4.9-6.3-7.6-12.7-11.5-20-2.6-4.8-6.2-10.6-7-16.7-.4-.4-.8-.8-1.3-1.1zm429.8-111.1c14.1 8.6 29.5 16.1 40.2 28.1 6.5.1 7.9 11.1 13.4 8-.3-5.1-6.9-3.8-8-8 1-.3 2.6 0 2.7-1.3-11.9-13.5-31.1-19.8-46.9-29.4h-4c0 1.6.3 3.1 2.6 2.6zM156 415.2c0 .1 0 .1 0 0 0 .1 0 .1 0 0zm0 .1l.3.9-.3-.9zm2.1-178.6l-3.9-7.8 3.9 7.8zm6.1 13.4c.5 1.2 1.1 2.5 1.6 3.8-.5-1.3-1.1-2.6-1.6-3.8zm-4.7-10.4c-.5-1-.9-2-1.4-2.9.4.9.9 1.9 1.4 2.9zm-3.2 176.5zm5.8-170.8c-.9-1.9-1.7-3.8-2.6-5.8.9 2 1.7 3.9 2.6 5.8zm2.1 4.7c-.7-1.6-1.4-3.1-2.1-4.7.7 1.6 1.4 3.1 2.1 4.7zm-7.9 166.2c.1.3.3.6.4.9-.1-.3-.2-.6-.4-.9zm-33.6-215c1.1 4.1 3.8 7.1 5.4 10.7 3.4 7.8 5.8 18 9.4 22.8.3 4 1.4 7.2 2.1 10.7 2.3 2.2 3.8 5.3 4.9 8.9 3 4.2 5.3 9.4 7.7 13.8 3.8 6.9 7.7 14.2 10.7 21.4 2.1 5.1.4 10.3 4 14.7-2.8.6-2.6 4.3-3.5 6.9.8-2.1.8-5 2.4-6.3 1.3 3.7 0 11.3-2.2 12.5-1.2 4.3-9.7 9.1-12.3 13.3-2.6 4.3-4.8 8.2-5.7 13.2-.5 2.7 0 3.3-1.3 5.8-.7 1.5-1.9 2.6-2.7 4 .5 8.9 1.9 17.6 3.8 25.1l.5-31.1c.3-.4.5-.7.7-1 2.1 3.6 3.3 8 4.2 12.3-2.4 6.6-4.1 13.6-5.3 20 .9 3.5 1.8 6.8 2.8 9.7 2.7 7.9 4.2 13.9 6.7 21.4.4 1.3.6 3.3 1.2 5.1-.2-.6-.3-1.3-.5-1.9.3.3.7.5 1 .8 1.3 1.3 2.5 2.9 3.7 4.5 0 .3 0 .5-.1.8.8-2.4-3.9-5.6 0-6.7-.1 2.3 1 3.4 2.7 4 9.6-5.6 16-14.3 26.8-18.7-1-5.7-5.6-7.8-8-12-4.2-.2-4.5 3.6-9.4 2.7-2-2.9-6.7-3.1-6.7-8-.5-5.4 5.7-4.1 6.7-8-5 1-2.9-5.1-6.7-5.4.1-5.2-2.8-4.1-4-5.3.1-1.7 1.7-1.9 1.3-4-4.9-.3-2.3-3.4-2.7-4-.5-.9-2.1.1-2.7-1.3.3.7.2-3.2 0-4-.6-2.3-.8-3.1-1.3-5.4 5.3-14.3 12.9-26.4 32.1-26.8 0-11.4-6.6-21-9.4-28.1-.8-2-.6-4.8-1.3-6.7-1.3-3.2-4.1-6.2-5.4-9.4-.8-1.9-.9-4.1-1.3-5.4-1.6-4.4-3.3-8.7-5.1-13-6.8 3.5-11.2-14.3-13.4-19.1-4-8.8-7.9-16.5-13.1-25.5-4.9-8.6-10-17-15.2-25.5-2.9 5.1-3.2 11.2-1.5 17.5zm48.2 76.3c4.2 8.4 10.6 21.1 14.7 30.8-1.4 7.2-5.2 5.3-10.7 6.7-5.4-8-9.5-17.3-10.7-29.5 2.7 4.9 5.9 9.3 6.7 16.1 3.1-2-.1-8.8-1.3-10.7 4.8-3.7 4.2 13.8 10.7 14.7-5.9-11.1-8.7-25.2-14.7-36.1 3.8-1.2 3.8 5.1 5.3 8zm-5.4-12.1c-2.5-3.3-5.1-6.5-5.4-12 3.8 2 4.7 6.9 5.4 12zm-2.2 45.8c-.1.4-.3.7-.5 1 .2-.3.4-.6.5-1zm-18 67.5v0zm18-67.6c0 .1 0 .1 0 0 0 .1 0 .1 0 0zm305.5-140.8c-.4.6-.9 1.2-1.4 1.8.5-.6 1-1.2 1.4-1.8zm4.8-25c.8-2.7 1.5-5.4 2.2-8.2-.7 2.7-1.4 5.5-2.2 8.2zm-.1.6c.1-.2.1-.4.2-.6-.1.2-.2.4-.2.6zm-16.1-7.6c0 .5-2.2 13.8-2.7 16.1-5.9 28.2-26.5 145.3-29.5 166 1.3-9.3 6.2-38.1 11.7-69.4h.6c2.5 5.2 2.9 11.2 5 16.2-5.6 20.6-10.1 36.8-10.6 38.5 1.5-4.5 32.2-116.7 34.8-132.5.2-.3.5-.6.7-1-.1-2.2 0-4.3.2-6.3 1.8-6.3 3.9-13 5.8-19.9-2.3 8-4.7 15.9-6.7 23.2-3.5-1.9 12-52.8 9.4-65.6h4c.1-1.5.1-3.1 0-4.6-2.2-.7-3.9-2-6.6-2.1-.3 1.9-6.7-4.1-13.4 30.8-.3 1.4-1.4 5.2-1.3 5.3 0 .5-1.4 3.9-1.4 5.3zM157.5 754.2c10.4.1 22 7.4 32.1 2.7-9-4.8-21.4-6.2-33.5-8-2-3-7.2-2.6-8-6.7-3.2 0-9.4-3.8-6.7-5.4 13.7 5.5 30.2 8.2 46.8 10.7-13.4-2-26.6-4.3-38.4-7.9-1.7-.9-3.4-1.7-5.2-2.4-4.4-1.7-10.7-3.9-13.7-8-.3-.1-.6 0-.9-.1-.2-.5-.6-1-1-1.4.1.3.2.6.3 1-2.4-.5-3.4-2.6-4.3-4.6-.5-.5-1-.9-1.4-1.4-.8-1-1.6-2.2-2.4-3.3-.4 5.5 1.8 5.2 0 9.4 5.5 4.3 8.3 11.3 13.4 16.1v4.1c1 1.2 2.1 2.4 3.2 3.5 2.8 1.1 5.8 2.6 8.9 3.1 3.6.4 6.9-1.5 10.8-1.4zm5.3-79c-2.9 1.1-3.1 4.9-2.7 9.4 5.2 4.6 4.6 15 12 17.4 4.1-1.3.2-17.1-1.3-18.7-1.1-1.1-1.6-2.9-2.7-4-1.8-2.1-1.9-4.7-5.3-4.1zm-46-125.3c-.6 3.1-1 6.2-.9 9.7 1.1-.2 4.6-9.5 4.9-11.2 1-.8 2-3.1 2.7-4.4 1-1.9 2.8-3.8 3.5-5.5 2.1-1.3 3.2-3.4 4.9-5.1 1.7-1.7 3.7-3 5.7-4.4 2.3-1.5 4.3-3.1 6.4-4.7 3.3-2.5 4.3-5.1 0-7.4-3.1-1.6-7.4.3-9.3 3.2-2.8.6-5.5 4-7.3 6-5.5 6-8.9 14.5-10.4 22.4 0 .5-.1.9-.2 1.4zm19.3 27.6c-5.1-5.3-11.5-.9-16.1-6.7 2.3 10.5 10 8.1 20.1 9.4.2-1.6.4-3.2 2.7-2.7-.8-2.7 2-2.9 2.7-4 2.2-4 3-10.6 8-12 .2 2-.5 4.9 1.3 5.3 1.7-2.4 3.4-6.3 5.4-6.7-.4.1.8 2.3 1.3 1.3 1.7-3 1.2-4.5 1.3-10.7v-5.4c-2 .2-1.2 3.2-1.3 5.4-2.3 1.7-1.7 6.4-5.4 6.7 1.1-5.5-2-6.9-1.3-12-4.6-1-2.2 4.9-5.4 5.4-.8-2.8-2.1-2.8-4-1.3 0 6.7 2.4 7.6-2.7 4-1.7 3.3 3 6.5 0 6.7-1.9-.4-6.2-7.9-4-4-2.2 5 6.2 6.1 2.7 8-3.7 1-2.7-2.7-5.4-2.7 1.3 4.1 2.7 8 4 12-6.5-3.6-1.8 3-3.9 4zm126 49.4c-.1-.6-.1-1.2-.1-1.8 0 .6.1 1.2.1 1.8zm0 0c.5 5.3 2.3 10.7 3.9 15.5 1.1 3.4 1.6 7.6 2.5 11.5.1.2.1.3.2.5 1.2.4 2.5.2 3.7 2.1 2.6 3.9 14.9 3.8 23 3.9 1.8 0 3.8-.6 5.7-1.5-1.5-.4-2.8-.9-4.4-1.2 2.5-3.8 9.9-2.9 13.1-6-.8.7-1.8 1.3-3 1.7 1.5-3.6 6.5-6.9 9.1-9.3.8-.7 1.5-1.5 2.1-2.3-.4 0-.8-.1-1.2-.2 0-1.5-.1-3 0-4.5-3.2 8-11 15.7-17.5 13.9-7.8-2.1-22.9-6.8-26.9-10-2.6-2.2-6.9-6.5-9.4-9.2-.4-1.5-.7-3.2-.9-4.9zm25.2-6.6c.4.4 2.2-.4 2.7 0 1.1 1.1 1.2 4 2.7 5.4 1.8 1.7 3.8 2 6.7 2.7-1.7-8.2-9.5-12.4-14.7-17.4-5.3-5.1-9.9-12-17.4-14.7-.3-1-1.1-1.6-2.7-1.3 4.6 9 14.5 15.4 20.1 21.4.9 1 1.6.4 2.7 1.3.4.3-.5 2.2-.1 2.6zm-22 27.6c.9 4.9 2 6 3.3 6.5 0-.2-.1-.3-.1-.5-1.7-3.7-3.8-7.2-6-10.6.9 1.5 1.9 3 2.8 4.6zm-48.9-22.3c-3.7-3.2-3.1-2.1-5.4 1.3-3.3-2.1-3.5-7.2-8-8 .6 5.5-4.4 5.4-2.7 12-2.2 2.8-6.7 3.1-12 2.7.4-5.3-6.2-3.6-6.7-8-1-6.2-5.4-8.9-9.4-12-.3 2-3.2 1.2-5.4 1.3-4.2 7.6-8.3 14.4-4 24.1 2 1.6 5.5 1.7 6.7 4 9.6-2.6 21.9 1.7 29.5 5.4 3.1-.4 5.5-2.6 8 0 .2-2-.5-4.9 1.3-5.4 6.5-.7 8.1 10.6 6.7 13.4-2.5.1-4.5-6.9-6.7-2.7 2.2 7 2.6 14 1.3 18.7 7.3-2.4 5.8 4 9.4 5.3-.3-4.8.9-8 4-9.4-.5 4.5-3 9.8 1.3 12 2-4.9 8.2.4 10.7-5.4.2 2-.5 4.9 1.3 5.4 2.6-.9-.3-7.5 2.7-8-.2 6.9 2.5 10.9 5.4 14.7 2.5-9.1-2.5-24.5-2-37.3-.6-2-1.4-4.1-2.1-6.4-.6-.5-1-1.1-1.3-1.9-3.7-8.4-8.6-15.5-14.7-21.4 0 9-5.4-.8-8-1.3-1.6 3.6 3.1 6.7.1 6.9zm-44-98.3c-1.3-3.1-3.4-5.9-6.1-7.9-5.2-4.1-12.2-4.8-16.8.5 4.5-1.6 11.2 2 15 4.3 3.7 2.3 8.6 7.9 8.8 12.2-.2-3.3.5-5.8-.9-9.1zm18.6-8.7c.2.1.5.1.7.1-.3-.1-.5-.1-.7-.1zm2.6-.6c-.2.1-.3.2-.5.2-.3.1-.5.1-.8.3-.2 0-.4.1-.6.1.7 0 1.4-.3 1.9-.6zm267.8 339.2c0-5.3 2.7-8 2.7-13.4-7.2-.5-6.2 10.6-2.7 13.4zm25.4-92.3c.4-2.1 2.9-.9 4 0-2-4.3 0-12.5-2.7-16.1-1.4 4.6-6.5 12.8-1.3 16.1zm-6.7-2.7c.6-3 4.1-10 1.3-12-.5 3-4.7 9.4-1.3 12zm-30.4 40.2c-.2-2.4-.7-5.7-2.5-7.3-3.2-2.8-2.3 1.1-2.5 4.1h-.8v-.9c-.3 7.4.3 14 5.4 16.1-.3-.1-.6-.4-.9-.5.1-3.8 1.6-8.1 1.3-11.5zm46.5-36.2c1.9-4.3 2.4-17.2 0-21.4-3.1 5.9-5.8 17.5 0 21.4zm8-22.7c-1.2 6.9-7.8 21.9 0 25.4-5.9-8.7 6.2-20.9 0-25.4zM267.3 980.4c-4-5.3-9.4-9.4-13.4-14.7-3.5-5.8-9.4-9.4-12-16.1 5.3 2.4 10.9 13.4 14.7 12-1.8-.1-5.2-5.2-2.7-5.4 4.4 3.2 7.3 7.9 12 10.7.1-2.7-2.3-4.7-4-6.7-5.8-6.8-10.9-12.2-16.1-18.7-6.9-8.8-14.1-17-21.4-25.4-6.7-8.9-12.2-19.1-20.1-26.8.3-2.9-2.5-4.4-4-6.7-.1-.1-.1-.3-.2-.4-3.5-2.5-8.1-11.9-10.1-14.3-2.4-3-5.9-10.3-9.4-11.1-2.5-.6 2.9 16.2 3.2 17 2.5 7.2 5.7 14.3 6.1 22-3.7-13.1-12.6-24.1-18.4-35.3-5.6-10.8-7.2-27.7-17.1-35.7-2.6 1-4.6-2.7-6.9-3.7-.3-.3 0-.4-.4-.7-2 5.5 1.4 14.9 2.8 20.4 1.6 6.4 3.7 11.7 6 17.7 3 8 7.3 15.5 11.7 22.8 2.4 4 7.4 9.7 7 15-8.3-12.7-15.9-26.1-22.5-40.4 12 26 26.7 49.1 44.2 69.6 5.9 13.3 18 20.3 25.4 32.1 4.2 1.6 5.8 5.8 10.7 6.7-.6 4.2 3.6 3.5 4 6.7 8.6 3.9 12.6 12.4 20.1 17.4-5.7-7.2-12.1-13.8-17.4-21.4 4.1 2.6 6.7 6.7 10.7 9.4 3.7 1.3 7.5 9.4 10.7 6.7-7.1-7.6-14.4-15.1-18.7-25.4 6.3 7.5 13.5 14.2 21.4 20.1.4 1.1 3.7 5.8 4.1 2.6zM157.4 580.8c-1.7.8-3.6 1.7-5.4 2.4h.8c0 .6-.1 1.4-.2 2.2h-.1c2.5-.2 4.9-1.2 7.2-2.1.5-.2 4.9-3.1 4.6-3.2 2.8.4 1.3 5 4 5.4.8-2.8-1.7-8.8 1.3-9.4-.1 2.3 5 9.1 2.7 5.4.7-1.9-1.6-6.9 1.3-6.7 2.9 4 1.1 4 4 0 3.1.4.8 6.3 5.4 5.4.4-2.3-3.8-6.7 0-8 2.8 1 .1 7.6 4.6 6.8-.6.1-1 0-1.4-.1.6-.3 1.3-.6 1.9-.9 0 .1.1.2.1.4-.9-3.2-2.9-10.6.1-12.9 1.9 2.5 2 7 5.4 8 0-3.7-5.6-8.6-1.3-12 1.5 1.7 2.2 11.1 5.4 6.7-3.1-2.3-.5-10.2-1.3-14.7 1.9.3 2.3 2.2 4 2.7-.2-6.5.1-10 2.7-4 .1-3.2-1.2-7.9-1.7-11.5-.4-.2-.7-.5-1-.8-.8-1-1.2-2.4-1.5-3.6-.8-2.9.2-5.3-.2-8.3-.7.8-1 1.8-.9 2.9 0-3.5 0-7.3-1.7-10.4-.4-.8-.8-1.3-1.2-1.6l.2-.2c-2.9 3.6-2.9 4.8 0 5.4-.1 0-4.3 6.4-4.5 6.9-1.2 2.3.4 2.6 1.4 4.8.8 1.8-.3 4.9-1.5 6-.6 2.5-3.2 5.9-4.6 8-1.8 2.7-4.2 5.4-5.6 7.8-1.5 2.5-2.9 4.9-4.7 7.1-1.6 1.9-4 5.1-6.1 6.1-.1.2 0 .4-.1.6-2.3 1.4-4.3 3.7-6.4 5.4-2.2 1.4-3.6 3.1-5.7 4zm131.3 370.1c3.6 3.2 7.9 6.9 12 10.6-3.9-5.2-6.8-11.5-10.6-17.3-3.8-5.9-7.9-11.7-12-17.4-3.2-4.4-6.9-8.5-9.4-12-2.6-3.7-4.8-5.6-6.7-8-1.2-1.5-1.8-3.9-2.7-5.4-12.8-19.4-24.9-39.1-35.9-59.7-2.3-1.9-4.8-3.4-7.4-4.4-1.1-2.2-2.2-4.3-3.3-6.6 7.8 16.7 18.2 30.9 27.8 46.6 1.8 3 3.4 6.6 5.3 9.4 1.9 2.7 5.1 4.4 5.4 8-11.1-10.8-18.1-25-26.8-37.5-2.7-3.9-5.7-7.2-8.8-11 1.3 8.1 4.6 14.7 6.6 23.6 2.7 12.1 3.3 16.9 11 25.1-10.7.8-24.2-42.2-26.8-50.8-.9-.7-2.5-1.4-3.4-1.9-2.2 12.8 8.4 26.6 14.7 37.7.3.1.5.3.8.5.3.9.4 1.5.6 2.2.2.4.4.7.5 1.1-.3-.4-.4-.7-.5-1.1-.4-.9-.9-1.7-1.4-2.6-6.3-3.6-9.9-10.3-12.8-16.7-2.2-4.8-5.6-16.3-12.1-17.2-3.1 5.9 1.6 13.9 3.5 19 1.2 3.2 2.5 6.6 3.6 10.1 2.4 3.3 4.5 7 5.7 11.5 5.4 3.6 8.8 9.1 12 14.7 2.7 1.3 5.3 2.7 8 4 .9 4.9 4.9 6.7 8 9.4 2.7 3.1 4.9 6.7 9.4 8 1 6.1 7.2 7.1 9.4 12 .7 2 2 3.4 2.7 5.4 5.9 1.3 9.4 8.5 12 12 2.5 3.2 5.8 5.4 8 8 3.3 3.8 5.1 10.8 10.7 9.4-4.7-3.3-8.4-7.6-12-12-3.5-4.2-5.8-9-9.4-13.4-3.5-4.3-8.9-7.7-10.7-13.4 6.8 5.3 12.1 12 20.1 16.1 1.4 2.2 4.6 8.2 7.2 7.3-.4.1-.7.1-1.1 0-9-11.6-18.8-27.1-20.5-32.2 11.3 14.5 27.8 24.1 29.3 28.9zm-29.5-42.8c4.6 4.3 7.6 10.3 10.7 16.1-5-3.9-7.7-10.1-10.7-16.1zm21.9 46.1c.1 0 .3-.1.4-.2-.1.1-.2.2-.4.2zm185.7 71.9c1.4-1.3 2.8-2.5 4.1-3.8.7-.3 1.4-.7 2.1-.9-2.2.7-4.4 2-6.5 3.5.1.3.2.8.3 1.2zm-311.2-87.5c-2.6-4.2-5.2-8.2-7.4-11.9-.6-1.3-1.2-2.6-1.9-4 0-.2-.1-.4-.1-.6.2.8.3 1.5.6 2 2.3 4.4 5.6 9.3 8.8 14.5zm153.2-280.8c-1.6-.2-2.4.3-2.7 1.3 0 0 .9-.1 2.4-.4-.4-.1-.8-.3-1.3-.4-.1-.2-.1-.3-.2-.4.4-.1 1-.2 1.8-.1zM209 501c.1.2.1.4.1.6.2.8.6 1.6 1 2.4.7 2.2 1.1 4.6 1.1 7.4.1-9.2-4.1-14.1-8-19.4 2.1 2.8 4.3 5.6 5.8 9zm-5.8-9c-.3-.4-.7-.9-1-1.3.4.4.7.8 1 1.3zm84.8 75.1l.3.6c.1 0 .3.1.4.1l-.7-.7z"/><path class="st1" d="M431.9 305.7c.5-1.7 5-17.9 10.6-38.5-2.1-5-2.5-11-5-16.2h-.6c-5.5 31.4-10.4 60.1-11.7 69.4 6.4-2.2 5.2-10.1 6.7-14.7zm-79 9.4c-2.5 5.6-1 15.1-5.4 18.7 1-4.1-1.4-4.9-1.3-8 .2-1.8.2-9.7-1.3-5.4-1.1 6.2.9 8.6-1.3 12-4.1-3.1-.9-13.3-4-17.4-2.6 3.2.4 12-2.7 14.7-2.8-5.7-2.1-14.9-5.4-20.1-.8 3.2 1.7 9.7-1.3 10.7-1.2-2.3 0-7.2-4-6.7-1.5 4.8 4.1 9.2 1.3 10.7-3.8-1.2-3.1-13.8-6.7-10.7 1.2 2.4 3.7 10.4 1.3 12-1.6-4.2-2.4-9.2-5.4-12 .4 3.9-.3 4.6-2.7 2.7-1.5 3.4 4.1 6.4 0 8-4.1-8.7-11.2-20.7-16.1-26.8-.9-1.1-.8-4.4-2.7-1.3 3.5 4.5 5.8 10.3 9.4 14.7 1.7 10.8 11.9 13.1 12 25.4 1.5 2.4 2.8 5.1 3.9 7.9 2.1-.9 4.2-1.6 6.3-1.9 4.1-.4 8.4 0 12.5 0 5 0 11.5-1.3 16.3 0 1.8.5 2.9 1.3 3.6 2.4.1-.6.2-1.1.2-1.7 7.2-8.2 12.2-21.7 17.4-30.8 1.9-3.3 5.3-5.9 4-9.4-5 6.2-8.3 14-13.4 20.1-1.5-3.4 4.1-6.4 0-8-2.4 2.9-1.3 9.4-5.4 10.7-.2-2 .5-4.9-1.3-5.4-1.6 4.6-2.1 10.4-5.4 13.4-1.9-5.6 2.8-13.7-2.4-18.5zm77.7 25.4c-1.7 4.4-13.5 33.9-18.9 48 2.9 0 5.8.3 7.8.9.6.2 1.1.5 1.6.7 2-5.5 3.6-9.7 4.1-10.8 4.1-8.8 7.6-17.1 12-25.4 4.4-8.2 21.1-32.4 25.4-36.1.7-.4 1.4-.7 2-1 1.3-3.5-.6-4.4-3-7.6-3-3.8-2.5-6.9-2.7-11.7 3.7-2 7-2.4 11.2-2.2-2.5-1.4-3.7-4.1-3.5-8.3 7.2-.6 9.2 3.8 10.6 9 7.6 1.1 15.7 3.6 23.5 6.9-.5-1.7 0-4 0-5.9 0-3.5-.4-5.7-3.5-7.4-3-1.7-6.2-2.1-8.8-4.4-2.3-2.1-4.5-4.2-6.9-6.2-4.5-4-10-8.2-16.4-6.7-3.9 1.1 1.7 3.4 0 6.7-8 7.6-9.9 21.4-20.1 26.8-2.1 7.3-5.5 13.2-9.4 18.7-1.2 4.2-3.9 12.6-5 16zm-46.9-152.6c3.4-6.4-1.2-20.8 5.4-24.1.7 5.5-1.1 22.5 0 18.7 3-1.5 2.4-6.6 5.4-8-.9 5.4-.8 11.7-2.7 16.1 3.6-.4 3.9-5.4 5.4-8 1.5-2.8 3-6.2 5.4-8 .2 7.2-4.5 20.3-1.3 29.5.8-6.4 4-10.3 4-17.4 3.1-.4.8-6.3 5.4-5.4.1 3.9-1.7 11.1 0 14.7 3.2-7.5 3.2-18.2 9.4-22.8 1.1 3.8-1.9 3.5-1.3 6.7 6.2-1 7-7.3 10.7-10.7-5.5-1.1-7.8-6.3-12-8-4.6-1.9-14.4-1.5-16.1-1.3s-1.9-1.5-4-1.3c-4.7.3-11.2 2.4-20.1 1.3-1.8 9.5 0 20.8 4 28.1-.1-5.7.6-.4 2.4-.1zm-1 72.1c4.3-2.3 15-6.6 16.8-.1.2 0 .5 0 .7.1 2.3.6 3.9 1.9 5.4 3.4-1.7-3.2-3.6-6.4-4.5-9.8-4.2 3.6-7.5-1.3-9.4-1.3-5.7-.2-11.9 2-18.7 2.7.4 3.4-.5 5.4-1.4 7.4 3.3-1.3 6.8-2.2 11.1-2.4zm89.4-96.2c3.9-21.1 11.7-38.3 10.7-64.3-1-.1-1.9-.3-2.7-.6.1 1.5.1 3 0 4.6.9 20.8-6.9 43.1-12.4 62.3-.2 2-.3 4.1-.2 6.3 1.8-2.4 3.7-4.8 4.6-8.3zm128.9 384c-.4-3.9-1.3-7.2-2.1-11s-2.4-7.5-4.2-10.9c-1.5-2.8-4.3-5.2-5.3-8.1-3-1.7-5-5-7.3-7.5-1.9-2-3.8-3.9-5.7-5.8-3.5-3.6-6.7-7.9-10.4-11.1-6.9-5.9-17-11.7-25.9-13.5-7.9-1.7-17.6-1-25.5.3-6.7 1.1-12.7 4.7-16 10.7-1.6 2.9-2.5 6.1-3.9 9.1-.8 1.7-1.3 3.5-1.3 5.4 0 1.1.4 2.1.8 3.1.3-.3.5-.6.8-.9.4-1.7 1.1-2.9 2.4-3.7v1.1c3.9-3.9 8.6-7.3 12.1-8.1.3 3.3-2.2 5.9-1.8 9.6 0-2.4 2.1-8.5 4.6-8.6.8 1.1 1.2 2.5 1.5 4 .6.4 1.2.9 2.4.7 1.5-3.9-6.4-5-2.7-6.7 5.8 0 4.9 6.7 10.7 6.7.8-3.6-6.1-6.3-2.7-8 4.5.5 4.7 5.1 8 6.7.4-3.2-5.9-6.5-1.3-9.4 3.6.5 5.9 9.1 9.4 5.4-2-1.1-2.9-3.4-2.7-6.7 3.7 1.7 5.3 5.4 8 8 1.7-4.1-4.6-6.8-1.3-8 3.2 2.2 4.5 6.2 6.7 9.4 1.9-3.8-3.6-6.8 0-8 2 2.9 2.6 7.2 5.3 9.4 1.7-3.3-3-6.5 0-6.7 2 3.9 6.4 9.4 6.7 4 1.4 2.7 2.3 5.7 5.4 6.7.1-2.3-.3-4.2-1.3-5.4 3.7.3 3.1 5 5.4 6.7 2.2-3.8 4.2 3.7 6.7 4v4c2.5 2.4 6.2 3.6 8 6.7.2 2-.5 4.9 1.3 5.4 2-4 4 3 5.3 4-.3-.2-1 3.9-1 4.2.1 1.5.5 2.9 1.1 4.2 1 2.4 2.5 4.7 3.9 6.9 2.7 4.1 5.3 8.5 5.3 13.6.6-4.1 1-8 .6-11.9zm-25.7 62.6c-.1.2-.1.3-.2.5 2.2 2.3 4.1 4.9 4 9.4.1.8.2 1.6 1.3 1.3.3-2.4-1.4-6.7 2.7-5.4 4.3 1 2.1 8.6 6.7 9.4-2.5-4.9-.7-10.6 2.7-13.4 1.5 2.9.3 8.7 4 9.4-1.5-5.7-1.5-12.7-1.3-20.1.3-.2.6-.5.9-.7h-2.3c-4.3.1-3.4-.5-6.3 2.8-1.6 1.9-2.4 4.7-5.4 4.4.7 6.1-3 4.8-6.8 2.4zm-5.5-421.2c-1-.4-1.9-.8-2.9-1.2l3.3 2.4c-.1-.4-.2-.8-.4-1.2zm-89.7 32.2c3.4-3.8 1.9-13.9 6.7-14.7V220c.2 2-.5 4.9 1.3 5.4v-8c2.3-.8-.1-6.4 2.7-6.7 1.3 3.6-3 11.2 0 8 1.4-1.2.4-4.9 4-4-2.4 2.5-1 8.8-1.3 13.4 0 2.7-3.7 1.7-2.7 5.3 5.1.2 2-7.8 6.7-8-.1 5.3-4.9 12.9-2.7 16.1 2.7-4.4 3.4-10.8 8-13.4-.3 2.5-3.5 8.9 0 10.7.3-6 3.4-9.1 6.7-12 .3 3.5-4.3 9-1.3 10.7 2.4-3.4 2.8-8.8 6.7-10.7.8 2.4-3.9 5.6 0 6.7 2.1-4.6 3.3-10.1 6.7-13.4 2.9 3.4-2.5 7.6 0 9.4 2.4-4.7 6.5-7.8 8-13.4-2.6-4.1-5.5-7.9-6.7-13.4-1.6-.7-2.6-1.7-4-2.7-10-7.2-16.7-18.6-29.5-20.1-1.8-.2-3.4 2.5-5.4 0-.6 9.3-4.8 30.7-3.9 41.5zm39.6 52c-2 4.9-4 9.7-6.1 14.5-1.3 3-5.5 14.4-9.1 16.6 2.7 1.2 5.3 2.5 7.8 3.9.2-4.4 1.2-8.9 2.6-12.1 1.4-3.1 3.5-7.1 6.7-8-1.2 3.7-3.2 6.6-4 10.7 1.6-.6 5-9.1 5.4-2.7 11-19.8 19.8-41.8 28.1-64.3 1.2 11.4-7 26.5-12 38.8-.8 2-.5 3.3-1.3 5.4-.5 1.3-2.3 3.1-2.7 4-.6 1.5.6 3.8 0 5.4-1 2.8-4.1 4.4-5.3 6.7-1.2 2.1-.3 4.8-1.3 6.7-2 3.7-6.6 5.3-6.7 9.4-.9 3.6 2.8 2.6 4 4-.4 1.2-.8 2.2-1.3 3.1 7 3.7 14.8 3.8 19.3 10.6 7.7 7.3 14.1 15.7 14.2 30.5 4.8 4.1 7 10.8 12 14.7-.7-.6 4.6-11.7 5.1-13 1.5-3.8 3.9-6.7 4.9-10.9.7-2.6.5-3.2-1.3-4.7-3.3-2.7-7.2-5.6-10.5-8.3-3.4-2.7-7.2-4.3-10.9-7.1-3.7-2.7-7.6-5.2-11.2-8.1-.3-.2-.4-.2-.7-.3-4.2-5.7-12.9-8.4-18.3-12.5 1.7-1.3 4.8-.9 6.2-2.5 1-1.1.6-2.4.6-3.8.3-5.2 2.5-10.7 4.2-15.6.9-2.6 2.3-9.6 5-11 0-13.4 21.1-58.7 18.8-60.2-.3 1.5-2.2 3.2-2.7 1.3l.3-.9c-2.1 4.5-3.9 9.6-6 13.4-4 7.4-7.3 14-11.1 20.9-2.5 4.4-4.8 8.9-6.9 13.6-1 2.2-1.8 7.4-3.4 9.1-6.6 7-10.4 6.4-12.4 2.7zm43.4-18.6c.6-1.6 1.4-3 2.7-4 .2 13.4-4.3 20.9-2.7 30.8.8-1.2 2.8-7.6 4-4-1.1 4.8-6.3 12.4-4 16.1 2.7-3 3.3-8.3 6.7-10.7-.7 5.6-5.1 14.5-1.3 20.1.5-4.4 3.1-6.7 5.4-9.4.6 5-5.1 12.1 0 13.4 1.1-2.6 4.9-9.3 6.7-6.7-2.3 2.1-2.9 6-2.7 10.7 5-.8 4.1-7.5 8-9.4 1.7 5.2-7.1 11.4-1.3 12 6.1-10.1 17.7-19.6 16.1-29.4-.3-1.8 1.5-3.2 1.3-4-.8-4.1-5.1-7.5-4-13.4-8-8.6-17-16.3-23.7-26.2-.3-.2-.6-.4-1-.6h-7.5c.9 5-2.3 5.7-1.3 10.7-2.4-.4-3.5 8-1.4 4zM240.5 825.1c2.6-4.7-.4-7.3-2.7-10.7-2.9-7.1-7.6-13.6-8-22.8-.4-7.8 3.9-16 4-24.1-1.5-3.9-2.8-7.9-6.7-9.4-.8 7.5 1.5 11.8 2.7 17.4-3.9-.6-3.2-5.8-6.7-6.7-1.1 4.6 2 5.2 1.3 9.4-4.4.3-4.3-10.8-8-6.7 2.8 3.8 3.2 10.2 5.4 14.7-4.7-2-5.8-7.6-9.4-10.7 1.1 5.6 4.7 8.7 5.4 14.7-5.6-3.9-9.4-11.4-12-16.1-.9-1.5-.3-6.5-4-5.4 2.2 15.7 10.9 24.8 14.7 38.8 4.4 3.9 7.4 12.7 9.4 16.1 2.2 3.8 1.8 10.8 8 9.4-1.5-9.2-9.7-18.8-6.7-28.1 3.1 8 6.5 15.8 13.3 20.2zm17.8-25.1c.5-2.3-.2-5.5-.5-7.7-.5-3-.8-6-.8-9.3 0-2.3-.1-4.6.3-6.8-2.2 1.6-4.5 3.1-6.8 4.8-3.3 2.5-5.8 5.2-9.1 7.6-3.2 2.4-5.6 2.9-4.6 7.5.3 1.5.9 2.8 1.6 4.1.8 1.5.9 3.1 1.4 4.7.9 2.6 4.7 5.3 6.3 7.6 1.9 2.7 3.3 5.5 4.4 8.6h.7c-.4-3-2.6-6.1-3.4-9.1-1.1-4.2-2.1-7-2.2-11.7.4.4.5.7.8 1.2 2.4.8 4.6 5.5 5.8 7.8.8 1.5 3.7 5.6 4.3 7.7-.1-3.7-1.7-7.5-2-11.3-.1-2.3.3-11.9 3.8-5.7zM70.5 331.1c0 1.3 1.1 1.6 1.3 2.7 1.2 9.1 7.7 15.4 10.7 21.4 2.9 5.8.9 4.7 4 8 1 1.1.5 2.6 1.3 4 4.7 8.1 10.9 18.1 10.7 25.4-3.3-.7-2.8-5.2-8-4 1.7 8.5-1.2 15.2 2.7 22.8-4.6-.7-2.3-8.4-6.7-9.4-.2 8.7 5.7 18.4 2.7 25.4-.4-2-1.7-9.7-4-5.4 4.3 6.6-1.4 14.7-2.7 20.1.9 7.5-.5 17.4 4 21.4-.5-2.7-3.3-9.9 0-12 1.4 3.5.9 9 4 10.7 1.1-4.3-1.7-11.6 0-12 2.2 2.3.7 8.3 4 9.4 3.3-10.6-3.9-19.3 0-28.1.2 1.6-.2 3.8 1.3 4 1.9-5.5-3.8-10.3 0-13.4.2 1.6-.2 3.8 1.3 4 1.7-4.6-3-9.3 0-10.7 3.4 2.9.8 11.7 6.7 12-1.4-10.1-.8-20.2 0-28.1 4.2 5.6 16.7-.2 12-6.7-2.7 5.9-6.7 3.8-12 5.4-3.5-3.2-6.1-14.4-5.4-17.4 2.2.2 2.1 9.3 4 5.4-1.6-4.2-2.7-8.9-4-13.4 5.7 4.3-1.8-3.8 2.7-5.4 1.2 4.6 2.3 9.3 5.4 12 0-4.1-5.4-9.7-1.3-13.4 1.9 6.1 4.6 11.5 8 16.1 2-4.4 2.1 4 4 4 .2-5.3-3.4-7.9-5.4-12-.9-2-2.1-3.6-2.7-5.4-.9-2.6-.4-5.7-1.3-8-1.9-4.8-4.8-9.1-7.8-13.4 1 2 2 3.9 2.9 5.9 1 2.3 2.2 5.2 1.7 7.9-6.2 2-10.8-2.8-15.4-7.3-7.3-12.6-13.7-27.1-24.2-37.5l-.6-.1c1.1 3.4 1.5 6.6.5 9.6 1.8 2.2 3.6 4 5.6 5.5zM249 829.6c-.2-1.7-.5-3.4-.8-5.1-1.1.3-2.2.7-2.4 1.9 2.1.3.9 2.9 0 4 1.1-.2 2.2-.5 3.2-.8zm-42.5 14.6c2.6 8.7 16.1 51.6 26.8 50.8-7.7-8.2-8.2-13-11-25.1-2-8.9-5.3-15.6-6.6-23.7-.6-.8-1.3-1.5-1.9-2.4-5.4-6.9-8-17.6-13.4-26.8 4-3.9 5 6.6 9.4 6.7 1.9 4.7 4 9.2 6.3 13.5 2.6 1 5.1 2.5 7.5 4.4-4.3-8.1-8.5-16.3-12.4-24.7-1.9-3-3.3 1.7-4-1.3 1.4-.1 1.1-1.7-1.3-1.3-1.2-6.8-6.3-11.7-9.4-17.4-3.1-5.8-4.5-12.7-9.4-17.4 1.1 10.1 8.3 14 9.4 24.1-9.8-7.2-10.1-23.8-18.7-32.1.4 5.9 6.9 12.6 4 17.4-2.5-3.2-3.1-9.1-5.4-13.4-2-3.9-5-10.6-8-9.4 2.5 3.4 6.1 11.4 1.3 10.7 1.8 4.9 6.6 13.9 4 18.7-3.2-8.4-8.3-14.9-12-22.8 1.1 12.4 3.8 16.6 5.3 26.8-7.3-5.8-9.2-16.4-14.7-22.8.8 15.3 7.8 24.3 10.7 37.5 2.1 2.4 7.4 8.6 5.3 10.7-6.1-5.7-9.3-13.8-13.4-21.4-4-7.6-8.5-14.7-13.4-21.4-2.7-1.4-5.7-2.3-6.7-5.4-.3-1.5-2.2-3.2-2.7-1.3 2.9 6.3 8.1 16.6 6.7 22.8-9.9-8-11.8-23.9-20.1-33.5 1-.3 2.6 0 2.7-1.3-2.5-.2-4.5-.9-5.4-2.7-2.4-7-7.8-10.9-8-20.1-7.4-8.8-9.8-23.3-13.4-33.5-1.4-3.8-2.4-8.3-5.4-10.7 5.7 20.1 9.9 41.9 18.7 58.9v5.4c4.2 4.7 9.1 13 6.7 20.1 4 .8 4 5.4 5.4 8 11.5 21.9 20.3 47 32.1 66.9 6.6 14.4 14.2 27.8 22.5 40.4.3-5.2-4.6-10.9-7-15-4.4-7.3-8.6-14.8-11.7-22.8-2.3-6-4.4-11.3-6-17.7-1.4-5.5-4.8-14.8-2.8-20.4.4.3.1.4.4.7 2.3 1 4.3 4.7 6.9 3.7 10 7.9 11.5 24.9 17.1 35.7 5.8 11.2 14.7 22.2 18.4 35.3-.4-7.7-3.6-14.8-6.1-22-.3-.8-5.7-17.5-3.2-17 3.5.8 7 8.2 9.4 11.1 2 2.5 6.6 11.8 10.1 14.3-1.4-2.4-2.3-5.5-3.8-7.7-3.3-4.8-9-8.6-8-13.4 3.7 4.8 8.1 9 11.7 13.9-1.1-3.5-2.4-6.9-3.6-10.1-2-5.1-6.6-13.1-3.5-19 6.5.9 9.9 12.4 12.1 17.2 2.9 6.4 6.5 13.1 12.8 16.7-6.3-11.2-16.9-24.9-14.7-37.7.9.9 2.4 1.6 3.4 2.3zm12.7 38.4c.1.3.3.7.5 1.1-.1-.4-.3-.7-.5-1.1zm-.7-2.2c-.3-.1-.5-.3-.8-.5.5.9 1 1.8 1.4 2.6-.2-.6-.3-1.2-.6-2.1zm356.7-238.7c-.6-5.6 0-12.5-4-14.7 2.5 3.7-1.3 13.8 4 14.7zM82.5 534.6c-1-10.8 4.5-18.9 4-26.8 1.2-1.9 8-9.5 2.7-9.4-4.9 10.2-10 26.2-6.7 40.2 3.7 2.5.1-2.9 0-4zM322 591.5c1.7.4 2.9 1.9 4.5 2.5 1.5.5 3.1.6 4.6 1.2 3.5 1.3 7.3 3.2 11.1 2.7-.1-.1-.2-.3-.2-.4-4.2-2.2-8.5-5-12.7-8.2-.8-.4-1.5-.9-2-1.5-.7-.5-1.4-1.1-2.1-1.6l-1.8-.3c-3.1-.7-6.4-1.8-9.2-3-2.4-1-6-3-8.6-2.4 2.6 2.6 9.6 7.6 10 11.4-5.2-2.4-10.5-5-16.5-6.3 5.5 7.1 11.9 13.5 18.2 19.7.8.8 2 1.9 3.3 3.1 3.1.6 4.1 3.2 5.7 5.3.4 6.2-4.2 7.5-5.4 12-.5-.2-.7-.6-.9-1.1-.4.7-.7 1.4-.9 2.1.5.1.8.4 1.3.5 0 1.6-1.2 2.9-1.3 4.2 0 .3-.2.7-.2 1.1 2.8.1 3.7 2.1 6.1 2.6-.5 4-1.9 7.2-6.8 6.8-.6.8-1.4 1.6-2.2 2.3-2.6 2.4-7.5 5.7-9.1 9.3 2.4-.8 4.3-2.1 4.6-5.1 6.1.6-2.8 6.1-2.7 9.4-.8-.1-1.3 0-1.8.2.1.1.1.3.2.4.5.1.9.2 1.3.4-1.5.2-2.4.4-2.4.4-2.1.4-3.6.2-5-.2-1.9.9-3.9 1.5-5.8 1.5-8.1-.2-20.4 0-23-3.9-1.2-1.9-2.5-1.7-3.7-2.1.8 1.9 1.6 3.9 2 6-1-1.7-1.6-3.8-2.1-6.1-1.3-.4-2.4-1.6-3.3-6.5-.9-1.6-1.9-3.1-2.8-4.6-.7 9.6 2.8 19.2 1.6 28.8-.4 3.1-2.7 7.8-2.2 11s9.6 7.6 9.4 9.5c.4-3.6 4.9-3.1 5.4-6.7 1.9 6.4 6.7 1.5 13.4 2.7.5-2.3-2-3.4 0-4 5.1 6.8 9.2 23.5 4.9 33.7.8 1.7 1.5 2.1 1.8-.2 1-7.9.7-16.4-.4-24.3-.4-2.6-.9-7.4-3.2-9.3-2.7-2.2-6.8-1.5-9.3-3.7 4.1-1.4 8.9-2.6 13-4.2 3.3-1.3 5.9-4.1 9.3-5.3 1.5-.5 3.2-.1 4.7-.8.2-.1 3.9-2.7 2.8-2.9-2.5-.4-5.9 1.9-8.5 2.4-3.4.6-7.2.6-10.6.6-5.4.1-13.8-.3-17.5-4.2 8.6-1.7 17-2.9 25.4-5 2.1-.5 5-.8 6.9-1.7 2-1 3.5-3.7 4.6-5.6 1.7-2.9 3.5-5.3 6.1-7.2 2.3-1.6 5.1-3.3 6.1-6.1 1.5-4.2-2-7.1-1.2-11.1 1.2-5.8 6.2 1.5 8.9 1.5 3.3 0 2-5.4 1.3-7.1-1.3-3.3-3.8-6.1-6.2-8.8-2.7-3-5.8-5.7-8.1-9.2-1-1.5-2.4-3.7-2.3-5.5.1-2.8 2.5-.6 3.9-2.3 1.2-1.4-.9-3.2-1.4-4-1.2-1.4-1-3.3 1-2.8zm-6.8 136.2c-3.8 3.6-10.7 7.6-11.8 12.9 4.7.2 10.5-9.5 14.3-12.2 3.6-2.6 7.6-4.8 11.6-6.6 1.9-.9 4.2-1.2 5.1-3 1.1-2.2 2.5-4.5 3.3-6.8-2.3-.2-4.6-.8-6.8-.9-.2-1.6 1.1-3 1.4-4.5-.4-.1-.8-.2-1.2-.4-6.1 1.2-12.5 3.2-17.4 6.4-2.5 3.8-5.6 7.8-7.2 11.9.7.2 2 .2 2.7 0 3.8-5.1 8.6-12.2 16-12.1 1.2 5.3-6.8 12.3-10 15.3zm-226-119.5c.2 2-.5 4.9 1.3 5.4 1.3-1.8 1.3-5 4-5.4.1 4.4.7 8.2 2.7 10.7 1.2-3.3 1.2-7.7 5.4-8 .8 3.6-1.7 10.6 1.3 12 1-3.9 2.1-7.7 5.4-9.4-1.8 5.8.4 7.5 0 14.7 5.4-.4 2.4-9.2 6.7-10.7-.2 5.1 1.1.5 4 1.3.2 1.6-.2 3.8 1.3 4 .6-1.6 1.4-3 2.7-4 .2 2-.5 4.9 1.3 5.3 2.5-2.6.1-3.4 0-6.7.8-5.9 6.2-14.2 5.4-17.4-5.3 3.2-4.2 12.8-10.7 14.7 2.9-3.7.7-7.1-1.3-6.7-.1-5 1.3-8.5 2.7-12-5.9-.1-4.2 7.4-8 9.4-1.8-4.2 3.3-8.1 0-9.4-2.1 1 .3 6.5-4 5.3.9-3.2 2.7-12.4 1.3-13.4-2.9 2-2.1 7.7-6.7 8 2.4-8.2-8.2-4.3-4-10.7-4.6 1.1-5.1-2-9.4-1.3-6.7 4.4-3.3 19-8 25.4 4.9 2.6 2-.5 6.6-1.1zM295 876.8c-3.3-4 2.3-16.9-3.7-18.2-.2 4.7-2.2 7.6-4 10.7.9-7.2-1.1-11.4-2.7-16.1-.9-2.6 7.7 1.1 8.1 1.2-.1-4-1.2-5-4.9-5.7-2.8-.5-5.4-1.5-7.5 1.1-1.4 1.8-2.6 4.6-3.6 6.6-1.3 2.8-2.3 5.8-3.1 8.8-.4 1.4-3.1 8.4-2.4 9.5-2.6-4.1-1.3-12.1-4-16.1-1.7 10.8.3 29.1 8 34.8 1.4-3.8-2.2-9.2 0-9.4.8 1.4 1.8 2.8 2.9 4-.1-.2-.1-.4-.2-.5-1.1-3.5-1.9-7.3-2.8-10.9-.7-2.8-3.1-14.4 2.3-14.5 2.8-.1 3.5 5.9 4.3 8 3.4-4 6.8 4.6 8 7 2 4 1.9 9.3 4 13.2.3-2.9-.6-5.7-.3-8.7.3-2 1-3.4 1.6-4.8zm53.6-276.4c-.6-.2-1.2-.4-1.9-.7 0 .2.1.5.2.7h1.7zm-52.7 274.2c.8-2.2 1-4.9 1-7.7-.7 3-1.8 7.6-1.7 9.5.2-.5.5-1.1.7-1.8zm236-289.8c-2.5-1.7-5.1-3.4-7.8-4.8 2.2 1.7 4.4 3.4 6.9 4.5.3.2.6.2.9.3zm-90.3 301.5c.2-2.4-.2-4.9.5-7.2.3-1 .9-3 1.8-4.1-.6-8.2-1.5-16.6-5.3-24.5-5.4-2.3-8.7 4.3-14.7 5.4-.6 4.6-1.3 9.1-2.5 13.1-.1 1.9-.8 3.5-1.2 5.3-.5 2.5.6 4.8.7 7.1 0-5.1.1-9.3 2.1-14 1.5-3.6 4-9.6 9-8.6 1.7 3.2 4.1 6.2 4.5 9.9.4 4.5.5 9 .5 13.4 0 .9-.1 3.9.2 6.6 0-.2.1-.4.1-.6 2.9 1.1 3.2 3 2.9 5.2 1-1 1.3-5.7 1.4-7zm-20.7 75.1c1.9-2.2 3.9-4.3 5.8-6.4-2.9.5-4.4 3.3-5.8 6.4zm-9.2-100.1c-.1 1.8-.2 3.7-.2 5.3.2 3.2.3 8.8 3.9 10 .2-3.2.4-6.5 1.4-9.5.2-.6.5-1.1.8-1.5-.3-2.9-.6-5.8-.8-8.7-.1-2.9.8-6.4-1-8.8-.6-.7-4.4-4.1-5.2-4.2-3.6-.2-3.5-4.2-7.2-2.4-2.7 1.3-4.1 2-4.8 4.9-.6 2.7-.7 5.7-1.4 8.4-.6 2.3-1.1 4.7-2.1 6.9-.3.6-.9 1.4-1.5 2.3.3 1.2.6 2.3.5 3.8 0 1 0 1.9.1 2.9h2.6c-.3.9-.6 1.8-.8 2.8 1.2-2.4 1.9-7.3 2.3-8.5 1.3-4.1 2.1-8.6 4.8-11.9 1-1.2 3-4.3 4.9-3.7.7.2 1.6 1.7 2.3 3-.1-.2-.1-.4-.1-.5h4c-.4 4.5 1 10.8-1.3 13.4-.5-1-.9-2.5-1.2-4zM460.3 564c0 3.9 0 7.7-.2 11.7-16.5-6-28.5-10.7-49.1-9.6-1.9.1-3.7.2-5.4.3-2.9 3.2-4.5 5.3-10.4 11.6-7.8 8.4-5.5 6.6-8.6 11.8-.3.5-.6 1.1-.6 1.7 1.7.5 5.7-2.6 7.4-3.5 3.2-1.9 6.1-4.2 9.3-5.9 5.7-2.9 11.9-6.4 17.8-8.6 9.4-3.5 20.2-6.6 27.8 1.9 3.5 3.9 5.1 11.2 4.6 16.5 0 0 0-.1.1-.1 1.3-2 3.1-3.8 4.1-5.8 3.3-6.8 5.1-13.8 8.7-20.6 1.2-2.2 2.1-3.9 3.1-6.2 1.4-3.2 2.3-6.5 3.2-9.8-5.9-.9-9.8-4.1-12.3-8.4.2 5.1.4 10.2.5 15.4.8-2 1.5-4 2.5-5.7 2.2-.4 2.3 1.3 4 1.3-.5 3.5-4 4-4 8-2 .3-1.9 2.5-2.5 4zm-15.9 331.8c1.1.6 3.4 0 5 .2 4.4-8.7 9.7-23.1 6.7-34.8h-6.7c.4 6.2-2 9.6-4.3 13.1.2 0 .3-.1.5-.1 2 2.8.3 10.3-.2 13.4-.4 2-1 5.3-1 8.2zm-20.5-208.6c1.1-4.1 4.8-2.3 9.2-1.6 0-2.2.1-4.4.4-6.6-1-1.7-1.4-4-2.9-5.2-1.6-.1-19.3.3-19.4.5 1.2-2.9 3.7-4.8 5.1-8.3 2.2-5.6 5.9-11.9 8.9-17.2 2.4-4.1 4-10.4 7.7-13-5.1 3.2-7.9 11.8-14.8 10.6.1-5.4 3.6-7.7 6.5-11.5 1.2-1.6 2.4-4.7 3.9-6.9-2.4 1.3-5.3 1.9-7.7 2.8-4.2 1.6-8.3 3.5-12.2 5.4-4.2 2.1-8.1 3.4-12.9 3.9-3.4.3-7.3.1-10.6-.5-3.6-.7-3.5-.2-4.5-2.1h-.2c-1.1 6.7 11.8 6.4 15.7 5.8 3.2-.5 6.4-1.4 9.7-1.9 11.3-1.7 7 3.1 8.4 11.2.4 2.1 2.2 2 2.3 4.6.1 1.9-1.4 4.4-2.4 6-2.1 3.5-4.9 6.4-4.6 11.2.3 4.3 5.2 7.4 4.1 11.5-5.6 3.3-10 5-16.7 4.3-8.4-.9-18.8-7.6-19.1 5 .8 1.3 1.8 2.5 2.9 3.7 1.5 1.6 3.3 3 4.7 4.7.7.9 3.3 4.2 2.9 5.3-.3 1-.3.2-1 .8-1 .8-1.1 1-.8 2.3.3 1.3 1 2.8 1.6 4 1.2 2.4 3.9 5.3 3.6 8.4-1.2.2-1.9.3-3-.1-.9-.3-2.1-.7-3.1-.7-1.5.1-1.5.6-1 1.7.8 1.8 3.4 1.6 4.9 2.5 4.8 2.8 11.1 6.6 15.2 10.4 4.4-11.5-15.2-16-15.6-26.1 1.4 0 10.4 4.6 10.4 4.8.2-3.2-2.6-4.2-3.3-6.7-.6-2.1.9-4-.4-6-1-1.5-5.1-4.1-6.8-5.4-.9-.7-1.7-1.3-2.5-2 1.1-.1 2.2-.1 3.5.4 3.8 1.3 9.2 3 9.4 3-.4-.4-.8-.8-1.4-1 1.1-1.5 1.8-3.6 1.3-6.7 13.1 3.1 16.3-8.2 24.6-5.3zm91 200.8c-4.1 1.4-5.8 6.1-8 9.4-2.3 3.5-5.7 7.6-6.7 12-4.7-.4-3.9 4.8-6.8 6.3-1.5 6-5.3 10.3-6.9 16.5 4.5-.2 6.9-4.8 9.9-7.8-.1-.1-.2-.1-.3-.2 5.9-12.5 11.2-25.5 18.8-36.2zm97.7-386.9c7 9.8 7.3 30.2 8 38.8 3.7-13.5-2.6-27.4-4-40.2-1.5.3-3.7-.1-4 1.4zm-7.3-188.2c-1.6 3.5-2.8 6.2-3.4 7.5-2.5 5.9-16.1 35.7-17.4 38.8-1.1 2.5-4.9 7 0 8 .1-3.4 3.4-7.5 5.4-10.7 2.1-3.5 3.8-9.2 6.7-8-3.1 6.3-6.1 12.6-8 20.1-2 3.7-6-2.8-5.3 2.7.8 5.7-1 8.9-1.3 13.4 8.3 9.5 16.6 19.1 25.4 28.1 1.9 4.9 6 9.1 8 14.7 2.6 7.3 1.2 16.1 6.7 21.4-1.6-18.1-3.6-35.6-10.7-48.2.6-6-3.1-9.9-5.3-13.4-2.2-3.4-4.8-8.5-9.4-9.4-5.2-.7-11 5-13.4 2.7 4.8-5.9 12.9-8.6 18.7-13.4 5.6-10 12-19.3 17.4-29.4.7 4.2-3.2 5.5 1.3 6.7.3-2.1.8-4 2-5.3.1-1.6.3-3.2.7-4.7.2-1 .7-2.2 1.3-3.6-2.9-4.6-2.9-8.6.1-13.2 3.7-2.5 2.2-10.3 8-10.7-3.5-6.9 3.3-10.7 5.4-16.1-5-.5-5.5 10.5-8 8 3.2-6.5 12.2-25.6 11-32.5-.1.7-.2 1.4-.3 2.2-1.1 6.4-4 10.8-7 16.4-2.1 4-4.1 12.3-7.1 14.9-.8 5.2-5.1 10.5-4.5 16.2.6.2 1.3.3 2 .4-2.3 3.8-3.1 8.7-4.8 12.8-2.4 5.5-4.5 6.9-10.5 6.5-1.2-1.8-4.4-1.5-5.6-3.3-1.2-1.7-.7-5.8-.5-7.8.1-3.8 1.4-7.9 2.4-11.8zm2 34.3c1.8 7.6-8.6 14.6-10.7 22.8-3.2.5-2.9-2.4-6.7-1.3 2-7.8 6.5-13.1 10.7-18.7 3.9 2.7-3.9 5-2.7 9.4 5.6-1.7 5.7-8.7 9.4-12.2zM460 817.1c3.5-5.4 5.8-12.1 10.7-16.1.3-5.2 0-9.9-1.3-13.4-11.9-5.2-19-15.1-31.2-20.1 1.4 1.3 2.8 2.7 4.1 3.9.4 1.8 1.4 3.2 1.8 5.2.5 2.3.4 4.8.4 7.1 0 4.9-1 9.4-1 14.1.1.1.3.2.5.3v.9h.8c.2-3-.7-7 2.5-4.1 1.8 1.6 2.2 4.9 2.5 7.3.3 3.4-1.3 7.6-1.3 11.4.3.2.6.4.9.5.6-5.3 4.6-5.7 5.3-9.4-.1.5-3-2.5-2.7-5.4 0-.3 2.4-3.5 2.7-4 11.1 1.6-1.3 14.6 2.7 20.1-.1-2.3 1-3.4 2.7-4 1.8 3.4-3.5 5.4-.1 5.7zm2.3-319c-.5 2.1-.8 4.2-1.2 6.4 1 .7 2 1.4 2.9 2.1 0 2.7 3.7 1.7 2.7 5.3-1.1 9.3-2.4 25.1 5.4 29.5 4.4-13.4 4.3-31.4 12-41.5-1-3.4-3.6-13.6 1.3-14.7.8 3.2-1.7 9.7 1.3 10.7 2.7-6.3 4.6-13.3 6.7-20.1.6-2 6-4.7 7.7-5.8 2.9-1.9 6-3.5 9.2-4.9 6.7-3 13.8-5 21.1-6.2 15.8-2.6 30.2-.1 45.5 3.4 4.7 1.1 9 2.8 13.5 4.5-4.5-7.2-13.3-11.6-20.6-15-8.2-3.8-17.1-5.3-26.3-5.8-5.1-.2-10.1.1-15 .7-3.9.5-7.8 1.3-11.6 1.6-3.6.2-6.2 2-9.6 3.3-2.2.8-4.8 1.5-6.7 2.9-3.2 2.3-5.9 5.1-9.1 7.3-2.6 1.8-4.5 5-6 7.7-.9 1.5-1.7 3.1-2.7 4.7-.8 2.3-1.9 4.1-3.1 3.9 1.2-1.1 2.2-2.5 3.1-3.9 1-2.8 1.8-6.3 2.4-7.5 1.5-3.1 2.9-6.1 4.2-9.2.9-2.1.1-1.5 2.4-2 .7-.1 4.1-.2 4.2-1.3.1-.8.2-1.5.4-2.3-3 1.4-6 3-8.6 5.1-4.4 3.5-7.8 8-10.9 12.7-2.6 4-3.3 6.6-7.2 8.8-.8 1.4-1.5 2.8-2.2 4.3.1.1.2.3.3.4 1.3 1.5 3.7 5.5.9 6.6-1 .4-2.5-.1-4-.5-.6 1.7-1.2 3.5-1.7 5.2.3.4.7.7 1 1.1 1.3 1.2 4.3 1.8 3.8 3.9-1.6-.3-3.6-.8-5.5-1.4zm34.1 436.6c3.8-5.4 7.7-10.7 11.8-15.8 1.2-7.3 9.1-15 8-20.1-4 5.8-7.3 12.4-13.4 16.1-.7 3.7-3.9 11.2-6.4 9.6-2.3 2.3-1.3 6.4 0 10.2zm.1-10.3s0-.1 0 0c0-.1 0 0 0 0zm-51.9-239.8s0-.1.1-.2v-2c-.1 1.4-.1 2.2-.1 2.2zm63.8-114.9c0 .2-.1.3-.2.5.5.3.9.6 1.4.9 0-.2.1-.4.1-.6l-1.3-.8zm5.7-63.6c.4-.2.7-.5.8-1-.2-.1-.5-.2-.8-.4v1.4zm-35.4 93.4c3.2-1.8 6.4-2.4 9.9-3.3 8.9-2.3 18.4-2.5 27.6-2 10 .5 19.5 4.4 26.7 11.2 5.6 5.2 8.1 13.4 9.9 20.6.9 3.5 2.6 7 3 10.6.7-2.3 1.7-3.7 2.8-3.2-.6-1.4-1.3-2.7-2.2-3.9 4.2-.3 7.6 2.8 9.2 6.7 0-2.4-.3-4.6-.5-6.9-.8-8.1-3.2-16.3-7.3-23.2-1.9-3.2-4.5-6-7.6-8-3.7-2.4-7.1-4.2-11.4-4.8 3.9-2 8.2.9 11.2 3.2-.1-.2-.4-.4-.5-.6-.3-1.9-2.2-2.3-2.7-4-.1 0-.2-.1-.3-.1 0 .3 0 .6-.1.9-6.8.3-11.6-2.9-17.2-5.7-3.1-1.6-6.2-2.7-9.2-4.4-2.4-1.4-4.7-2.9-6.9-4.1-1.2 0-5.2 2-6.3 2.2-2.8.7-5.7 1.1-8.5 1.4-5.4.6-9 1.5-14 3.5-2 .8-3.7 1.6-5.6 2.5-4 2.1-7.7 4.5-11 7.4-2.8 2.4-6.2 5.7-8 8.8-2.3 4-3.4 8.7-5.6 12.6-2.9 5.2-4.6 11.9-6.6 17.6-1.6 4.7-5.1 20.8-8.5 32.8.3-.7.6-1.5.9-2.2.4-.9 4.4-9.4 4.5-9.1.5 1.3.2 18.4.1 25.3.1-2 .2-4 .5-5.9.6.1 1.1.6 1.6 1.3 2.8-9.8 7.6-27.1 11.2-39.4-.5.8-1 1.7-1.6 2.5-1.4 2.1-2.3 5-4.2 6.7-.2 1.3-1.3 2.3-1.7 3.4-.5 1.5-.5 3.1-.9 4.6-.4 1.7-1.5 3.7-1.5 5.4v5.4c-.7 2.1-1.4.1-1.3-1.3.5-13.7 3-26.2 9.4-38.4 2.6-4.7 17.6-23.1 22.7-26.1zm25.5-32.8h.2s0-.1-.1-.1c0 .1-.1.1-.1.1zm32.3 48c1.9 1.7 5.6 5.9 9.1 10.3 0-.2 0-.4.1-.7-2.6-3.7-5.5-7-9.2-9.6zm-411.1 79.2c-2.1-8.2-3.8-16.7-8-22.8 2.4.4 2.4-7.5-1.3-5.4-.1 9.2 3.5 18.7 2.7 32.1 3.8 9.6 7.2 19.6 10.4 29.8.4.5.8.9 1 1.4.3.1.6 0 .9.1 3 4.1 9.3 6.3 13.7 8 1.8.7 3.5 1.5 5.2 2.4 11.8 3.6 25 5.8 38.4 7.9 1-5-5.1-2.9-5.4-6.7-16.8-1-29.2-6.5-42.8-10.7-4-13-9.5-24.5-14.8-36.1zm396.3-115.7c0-.4.1-.8.2-1.2l-6.9-3.7c-.1.5-.2.9-.3 1.3l.2.2c2.5.6 4.7 1.9 6.8 3.4zM409.2 316.4c-8.5 24.5-19.3 46.8-28.1 71.1 0 0 .1 0 .2.1 1.7 1.1 3 2.6 4.1 4.3.7-2.2 2.2-6.6 2.4-7.2 2.7-8.2 26.6-67 21.4-68.3zm43 276.7c-1.3.6-2.5 1.2-3.5 1.6.2 3.4-.4 7-1.8 10.2 2.2-3.9 3.2-8 5.3-11.8zm65.4-283.4c-2-1.7-2-.8-3.4-.2.9.5 1.9 1 2.8 1.6.3-.5.5-.9.6-1.4zM378.8 577.9c-3.3 4.1-5.6 8.5-10.2 11.5-.9 4.1-2.4 7-4.3 9 2.3-.9 4.5-1.9 6.8-3 1.7-2 3.5-3.8 4.8-5.2 4.2-4.6 8.1-10.8 10.5-16.6-2.2.7-3.6 2.1-5.6 3.3-.7.3-1.4.6-2 1zm64 150.7c-1.1-2.3-3.3-5.5-3.6-8.1-1.1-.8-1.7-1.8-2.4-3.1-5.1.6.3 14.5.4 17.3-4.6.6-7.6-6-10.7-8.3-.4 8.9 9.8 19.6 18.1 22.6 2 .7 4.2 1.1 6.5 1.4-2.1-2.6-3.3-6-3-11-2.8-1.2-4.1-4-4-8 .1 0 .2 0 .4.1-.8-.9-1.2-1.9-1.7-2.9zM481 921.4c.9-.3 1.7.1 2.5-.3 3.2-4 6.3-8.4 9.9-12 3.9-8.1 7.8-16.1 12.1-23.7-5.8 1.8-7.3 7.9-9.4 13.4-8.4 9.1-15 19.5-22.1 29.6 2.7-2.3 5.1-4.7 7-7zm16.7-476.1l.3-.3c.2-.6.4-1.3.6-1.9-2.2 2.5-4.4 4.9-6.5 7.3-.5.7-.9 1.5-1.1 2.5-.2-.2-.4-.4-.5-.7-1.2 1.4-2.5 2.8-3.7 4.1 6.8-1.7 6.4-5.6 10.9-11zm100.2 200.4c.1 1.7.2 2.6.4 3.1.1-.1.2-.3.3-.4.2 0 .2 0 .4-.1.3-1.9-.2-6.3-3.7-5.3-2 7.9-9.2 10.4-9.4 20.1-3.1 1-4 4-5.4 6.7 1.7.5 2.7 1.7 2.7 4-8.3-.4-2.2 6.4-8 9.4 4-1.6 5.8 5.6 2.7 6.7-1.8.2-4-5.4-5.4-1.3 2.6 3.9-6.3 8-5.4 14.7-1.7.6-2.7 1.7-2.7 4-4.3.6-4.2 5.6-8 6.7-.2 6.5-5.6 7.8-6.7 13.4-7 1.9-11.7 6.2-17.4 9.4-1.7-.1-1.9-1.7-4-1.3-3.3 3.7-10.3.5-14.7 5.4-.3-1.5-1.5-2.1-2.7-2.7-1.2 1.3-2.1 4-2.6 7.2 1.4-.2 3-2.9 5-3.1 1.4-.1 4.5 2.9 5.6 0 .3-.2.6.1.8-.1 1.1-2.1 4.1-1.8 6.2-1.8 2.9 0 5.6-1.2 8.4-1.4 3.4-.2 6.5.7 9.7-1 3.3-1.8 6.5-6 8.6-9.1 6 .3 5.1-2 6.9-6.6 1.2-3 4.5-7.8 8.7-7.1.2-2.6 2.6-4.9 3.3-7.3 1-3.2 1.4-6 2.9-9.1 2.8-5.7 5.8-7.5 6.8-13.7 1-6.4 4.4-11.1 6.4-17.2.8-2.4 1.7-5.5 2.9-8.3.3-1.1.8-2.2 1.5-3 .7-1.1 1.4-2.1 2.3-2.9-.5-.9-.7-2.2-.5-3.9 1.5-1.3.5-5 4.1-4.1zm-445.6-411c2.2 4.9 6.6 22.7 13.4 19.1-4.9-11.7-10.4-23-16.3-33.8-1.8 3.1 3.5 5 0 5.4-3.7-3-3.9-9.5-6.7-13.4 2.5-1.3 4.5 4 5.4 0-4.5-4.4-5.2-12.5-8-18.7-2.5-5.6-5.1-13.8-13.4-13.4-1.1 1.2-1.9 2.5-2.6 3.9 5.2 8.5 10.3 16.9 15.2 25.5 5.1 8.9 9.1 16.6 13 25.4zm-22.9-48.1c12.1-.5 7.7 15.5 13.4 21.4-3.6 1-4.5-5.7-6.7-9.4-2.5-4-6.8-7.7-6.7-12zm-68.3 96.3c-.7-3-2.1-5.3-4-7 .7 6.1 4.4 11.9 7 16.7 3.9 7.3 6.6 13.7 11.5 20 6.1 7.8 12.9 16 18.7 24.7-1.2-2.5-2.2-5.2-3.7-7.5-3.7-5.9-8.4-10.5-9.4-17.4 3.9 4.1 8.3 9.9 12 16.1 2 3.2 3.9 9.2 5.4 10.7 1.5 1.6 3.8 6.6 5.4 4-3.6-6.6-8.8-11.7-10.7-20.1-14.1-14.1-20.5-35.7-33.5-50.9 3.9 11.8 10.9 20.4 14.7 32.1-6.2-5.4-7.4-15.8-13.4-21.4zm41.5 13.4c1.7 4.2 6.5 12.2 9.4 10.7-1.4-.6-3.1-7.3-1.3-6.7 1.4 2.7 2.3 5.7 5.4 6.7.8-3.6-5.5-6.8-1.3-9.4 1.2 5 3.7 8.8 8 10.7.7-3.9-5.5-7.7-2.7-9.4 2.6.6 3.8 9.4 6.7 5.4-2.1-2-5.5-9.5-4-10.7 3.3 2.3 5.1 11.8 9.4 5.3-4-2.7-9-11.5-6.7-16.1 1.1 3.8 3 6.8 6.7 8 3-3.2-5.5-11.8-2.7-14.7 1.8 0 1.2 2.3 2.7 2.7.8-5.7-5.7-11.2-2.7-14.7 2 3.4 3.3 7.4 6.7 9.4-3.1-5.8-3.3-14.5-6.7-20.1-2.9 5.6-6.4 10.6-14.7 10.7-4.1 8.4-16.5 8.5-18.7 18.7 3.4 1.1 3.4 5.5 5.3 8-3.5-1.4-4.5-5.3-8-6.7 1.8 5.3 4.3 10 9.2 12.2zm75.3 689.2c-2.7-4.2-5.1-8.8-6.9-14 1.9 5.6 3.7 9.4 6.9 14zM33 518.6c-.3-2.1-2.2-.2-2.7 1.3.9 10.3 3.5 31.8 1.3 37.5-.4 1 1.3 2.9 1.3 2.7-.4 1.5-2.8 2.6-2.7 4 0 0 2.6 1.1 2.7 1.3.7 1.3-.3 3.9 0 5.4 1.8 8.7 1.5 18.6 2.7 26.8.9 5.8 3.2 11.4 4 17.4.5 3.4-.4 7.1 0 10.7.4 3.3 2.2 6 2.7 9.4 0 0-1.6.1-1.3 1.3 2.3 11.7 4.7 24 6.7 36.1-.3 2.3 1.5 3.3 1.3 0-7.1-49.6-11.4-101.9-16-153.9zm131.7-92.5c-.6-1.2-1.2-2.3-1.9-3.5-1.8 1.6-3.6 3.2-5.3 4.9 2.9 0 3.9-1.8 7.2-1.4zM33 458.3c-.5-4 1.3-17.3-1.3-14.7.5 7.5-3.7 12.3 1.3 14.7zm75-144.6c-4-8.9-9.2-16.7-14.7-24.1-1.6.2-3.8-.2-4 1.3 6.6 7.2 11.4 16.2 18.7 22.8zm78.4 140.8c-1.1-.4-2.3-.7-3.6-1.1 2.7 1.4 5.6 2.7 8.6 3.7-1.7-1-3.3-2-5-2.6zm-6.3-2.7c0 .3.1.6.1.9.9.2 1.7.4 2.6.7-.9-.5-1.8-1-2.7-1.6zm-14.2-23.3l-.4.4c.2-.1.4 0 .6-.1-.1-.1-.1-.2-.2-.3zm-12.8-224.6l.6-.6c-.8-2.7-1.5-5.4-1.9-8.1-.5-.1-1 0-1.5-.2 0-.1 0-.2-.1-.4-.4 2.9 1.6 6.2 2.7 9.7 0-.1.1-.3.2-.4zm12.4 16.1c.8 3.3 4.7 10.4 6.7 8-1.8 0-1.7-3.7 0-4 .3 4.1 3.7 5.2 5.4 8 1.7-3.3-3.9-5.6 0-6.7.3 4.1 3.7 5.2 5.4 8 .8-2.4-3.9-5.6 0-6.7 1.2 4.2 4.5 6.2 5.4 10.7.1 1.4 1.7 1.1 1.3-1.3-.9-3.2-6.1-9-2.7-12.1.5 2.7 3.9 9.3 5.4 6.7-1.4-.6-3.1-7.3-1.3-6.7 3 3.7 4.5 8.9 8 12.1-.9-5.3-6.6-13-4-17.4.6 6.1 5.5 7.9 8 12.1-1.9-5.7-3.8-11.3-5.4-17.4 3-.6 3.3 8 5.4 4-2.6-1.9-2-6.9-4-9.4 6.2 1.2-.9-4.4 2.7-4 2.9 3.8 3.3 10 6.7 13.4-1.2-8.2-3.9-14.9-6.7-21.4 5.2 3.5 1.1-4.8 1.3-8-7.6-1.3-8.3 4.2-12 6.7-6.7-.9-6.7 5.8-12 2.7-1.8 3.4 5.3 4.2 1.3 5.4-2.4.4-4.1-6.3-5.3-2.7 1.9.3 1.5 2.9 2.7 4-2.4-1.2-3.9-3.2-6.7-4-2.5 2.5-.1 3.4 0 6.7-1.9-.3-2.3-2.2-4-2.7-.9 4.9 2.9 5.1 2.7 9.4-3.1.4-1.5-3.9-4-4-.6 4.2 1.9 5.2 2.7 8-6.2-1 .8 2.6-3 2.6zm33.2 239.6c-2.3-.7-4.8-1.5-7.3-2.4 2.2 1.3 4.6 2.6 7.3 2.4zM34.3 440.9c-.1-28.7 4.4-47.2 10.7-70.9 1.3-10.2 5.9-25.4 10.7-36.1-.5-3.2 2.5-2.9 1.3-6.7 4.6 1.2 4.6-2.1 2.7-4-3.6-1.7-3.2 4.9-4 6.7-2 4.5-5.4 11.3-6.7 14.7-2.4 6-2.1 11.8-5.4 16.1 0 11.4-6.7 27-8 34.8-.5 3 .5 6 0 9.4-1.4 9.5-2.5 17.6-2.7 28.1 0 2.7-3.4 7.2 1.4 7.9zm162 564.9c-3.2-2.9-6.4-5.8-9.3-9 6.4 8.6 12.4 19.1 20.3 26.6 3.3 3.1 6.9 5.8 10.6 8.4-8-7.8-16.8-14.9-21.6-26zm-43.8-420.4c.1-.8.2-1.6.2-2.2h-.8c-.2.1-.4.2-.6.2-2 .7-4.5 1-6.5 2 2.5 0 5.1.2 7.6 0h.1zm252.9 394c-7.3 3.1-11.3 11.1-19.1 15.5 0 .1.1.1.1.2-9.6 5.4-18.6 11.5-32.1 8-7.4-1.9-12.5-9.5-18.7-8 2.9-3.1-3.6-4.3-5.3-6.7 3.6 8.4 9.6 14.5 16.1 20.1 1.1-2.6 4.7-1.3 6.7-1.3 7.8 0 7.7 1.2 12-1.3.1 3.4 5.2 1.9 5.4 5.4-.1 7.7-.2 15.4 2.7 20.1 2.7-4.4.7-13.6 1.3-20.1 1.8-.9 2.5-2.9 2.7-5.4 10.7-7.5 19.6-16.8 28.2-26.5zm228.7-298.9c-5.5 1.7-6.5 9.2-8 14.7-1.8 6.8-1.8 14.4-4 20.1-1.9 6.1-3.7 12.4-5.3 18.7-1.2 4.7-1.7 10.2-2.7 14.7-.1.5-2.5 3.3-2.7 4-.9 4.1-.5 8.8-1.3 13.4-2.5 13.7-8 26.7-9.4 38.8-1.3 11.2-2.7 17.7-5.3 26.8-1.9 6.3-4.2 14.5-8 18.7-7.1 33-19.7 62.1-32.1 87-8.3 16.6-18.6 30.6-24.1 48.2-.3.9-4.3 3.3-5.2 4.3-1.5 1.7-2.7 3.7-3.9 5.6-1 1.6-2 3.1-3.1 4.7 16-16.9 28.1-34.7 41.2-55.3 8.1-12.7 13.8-25.6 19.2-39.7 5.4-14.2 13.2-29.2 18.6-43.3 2.9-7.6 4.6-17.1 5.9-25.1 1.8-11 5-21.9 6.7-32.9.8-4.9 6.1-27.3 11.1-26.5.1 0 .4 2.6.6 6.1 1-5.5 2.1-10.9 2.6-16.2.6-5.9-.6-11.5 0-17.4.8-7.7 4-15.1 5.4-22.8 2.4-13.5 3.2-27.7 6.7-40.2-3 0-.6-5.6-2.9-6.4zm7.1-179.8c-.5-8.5-2.2-15.2-4-23.4-2.1-9.5-2.2-20-3.1-29.7-.7-8.3-.2-17.7-1.3-25.4-1.1-7.2-4-14.5-5.3-21.4-1.5-7.7-1.5-15.2-4.8-21.7 2.4 5.5 2.1 15.6 2.7 21.1.9 7.7 1.6 15.4 1.9 23.1.5 13.1-.6 25.4.7 38.6 2.4 24 3.7 47.8 4.1 71.9.1 10.1-.8 20.2-1.3 30.4-.3 6.7.8 12.7 1.3 19 .7 8.7 1.5 17.6 1.6 26.2.1 8.3 3.3 18.7 1.8 26.9 4-22.7 5-45.9 5.6-69 .2-6.8.4-13.6.5-20.4-1-3.9-.8-17 0-33.5-.1-4.2-.2-8.4-.4-12.7zm-286.9 510.5c-2.3 1.7 0 8-4 8-3.5-2.1-10.4 1.5-13.4 4 .8 7.8 1.8 15.7 2 23.5 6 1.8 12.7 2.1 19.8 1.8-.5-11.9 2.3-25.4 3.7-35.9-4.2.9-4-2.4-8.1-1.4zm-2.7 25.4c-2.1 1 .3 6.6-4 5.4-.9-4.7-4.9-11.2-1.3-16.1 5.4-.5 6.5 3.3 9.4 5.4.1 3.3-2.1 4.2-4.1 5.3zm184.7-68.2c.8-6.3 3.9-11.3 5.3-14.7 2.6-6 4.7-11.6 6.7-16.1.2-.5 2.4-.8 2.7-1.3.6-1.1-.5-2.9 0-4 .2-.5 2.4-.7 2.7-1.3.9-1.8.8-4 1.3-5.4 1.4-3.1 3.1-6.8 4-9.4.6-1.7 2.1-3.8 2.7-5.4 2.9-7.6 6.3-15 5.4-20.1-2.5 4.6-3.2 11.1-6.7 14.7 1.1-8.3 3.2-16.6 5.4-24.1 2.4-8.2 6.9-15.3 5.4-22.8-3.7 14.2-13.1 22.6-14.7 38.8-7.2 8.6-8.7 21.7-13.4 32.1-3.7 8.1-9.4 15.1-12.8 23.3-2.9 6.9-7.7 10.7-12.4 16.3-3.9 4.6-7.2 10.5-10.7 15.8-7.9 11.9-15.3 21.6-26.7 30.3-2.3 1.7-5.9 3.7-7.5 6.1-.7.2-1.4.6-2.1.9-1.3 1.3-2.7 2.6-4.1 3.8-.1-.4-.2-.8-.3-1.3-2.2 1.5-4.3 3.1-6.5 4.3-4.2 2.3-8.8 3.4-13.1 5.6-4 2-8.1 6.1-12.4 7.3-9.8 2.7-19.7 5.3-29.5 8 .2 4.6-.4 8.4-2.6 10.6 12.2-.7 24-9.5 34.5-13.9 6.5-2.8 14.2-5.7 21.5-9.4 7.2-.6 13.3-2.1 19-4.5 10-9.3 20.9-17.6 30.8-27 3.4-8.2 10.7-12.5 13.4-21.4 6.6-3.5 9.1-11.2 14.7-15.8zm-255 76.4c.1-.9.5-1.7 1.1-2.5-3.1-1.6-6-3.4-8.5-5.7-3.3-1.7-5.6 3.9-6.7 0 1-.3 2.6 0 2.7-1.3-3.7-2.1-7.5-4-10.7-6.7-2.7-3.6-1.3-5.1-2.7-8-3.5.2-6.4 3.2-9.8 1.8-2.8-1.1-6.1-4.6-8.6-6.5-2.2-1.7-5.9-3.3-7.1-6-.3-.2-.6 0-.9-.1-.7-.8-.7-.9-1.7-1.3-2.5-4.5-9.2-7.4-12.9-11.1-3.5-3.6-7.8-7.6-10.5-11.2-6.5-8.8-10.6-18.9-16.1-28.5-5.7-9.9-12-20.3-17.6-30.7-3.3-6.1-7.3-11.9-10.3-18-1.7-3.3-2.9-7-4.5-10.5-1-2.4-2.6-4.7-3.1-7.3-.4-1.9.1-3.5-.3-5.2-1.2-5.1-6.1-11-8.4-15.9-5.1-10.3-9.6-20.9-13.9-31.6-3.4-8.4-6.3-14.3-9.4-21.4-2.9-6.8-4.9-12.8-6.7-18.7-.2-.5-2.4-2-2.7-2.7-.9-2.4-1.6-5.4-2.7-8-1.9-4.7-3.4-10.5-6.7-14.7-2.6-16.1-10.1-27.4-14.7-41.5 0-4.9.7-10.6-2.7-12-.2 1.6.2 3.8-1.3 4-1.8-12.9-6.7-22.8-9.7-34.5-.3.9-.5 1.8-.7 2.7-2.4-4.5-5.1-8.7-8.2-11.7.5 3.8.6 8.2-.1 11.3-1.8 0-1.2-2.3-2.7-2.7.4 6.2 3.6 13 1.3 14.7-4.4-8-5.1-17.3-5.6-26.8h-.5c.1-.4.3-.8.4-1.2-.2-4.1-.5-8.1-1-12.1-.8-6.5-3.3-12.6-4-18.7-.7-6.5-.4-16.1 0-18.7.2-1.2-1.3-2.5-1.3-2.7v-6.7c-.1-5.7-1.1-12.1 1.3-17.4 1.3 12.1 4.3 22.4 8 32.1 0 .7 1.1 1.5 1.3 0-2.7-7.7-.7-18.8-1.3-28.1-.3-5.1-2.2-10.9-2.7-16.1-.4-4.8.3-8-1.3-9.4-.9-.7 1.4-1.6 1.3-1.3 1.3-10.6-4.6-17.4-1.3-26.8 3.6 4.5-.1 12 2.7 14.7-.1-.2 1.4-2.1 0 0 1.1 3.3.9.9 2.7 2.7 4.1 17.8 4.5 31.1 10.7 46.9-2.8-23.1-6.7-52.2-5.4-75 3 10.9 2.5 25.2 8 33.5-.9-11.1-1.8-22.3-5.4-30.8-.3-19.8-1.9-38.3-4-56.2 2.2.4 3.6-1.8 1.3-2.7-.5 2.1-1.6.2 0-1.3 2.6-.4 2.7 1.8 4 2.7-1.9-8.6-2.6-20.3-2.7-30.8-.1-5.1-2.5-11.7 1.3-13.4.3 5.1-1.4 12.1 4 12.1 1-8.2-6.4-26.6-4-36.1 3.9 3.3.8 13.5 5.4 16.1-2.7-11.4-3.9-27.6-1.3-40.2C71 381 66 367 63.8 357.9c-1.1-4.3 1.3-10.6-4-12 1.4 17.5 4.6 38.4 2.7 48.2-2.1-4.5-4.6-18-8-25.4-.6 5.5 1.9 16.1 2.7 25.4.6 7.1 1.1 14.1 0 18.7.5-3.7-2.7-8.2-4-13.4-.9-3.4.3-15.9-4-12 2.3 9.3 4.5 25.8 1.3 36.1-.7-2.4-.7-5.6-2.7-6.7-1.5 5.2 2.4 11.8 0 13.4-2.1-5.9-4.1-11.9-4-20.1-.1-1.4-1.7-1.1-1.3 1.3-.3 8.6-.4 10-2.7 17.4 1.4 1.8 1.3 4.9 2.7 6.7-1.9 2.6-3.1 5.8-4 9.4-.3 7.9-.2 16.9 0 21.4.2 5.9-1.4 4.6 0 9.4 1.5 5.1.1 10.9 0 16.1-.1 6.5 2.4 12.7 2.7 18.7.1 2.8-1.6 5.8-1.3 8 .5 3.9 2.7 6.5 2.7 10.7 0 3.2-1.9 6.2-1.3 9.4-.4 3.9 3 4.1 2.7 8-.7 8.2 1.5 19.4-1.3 25.4 2.6 2.9 3.1 7.3 2.7 10.7-.2 1.5-.6 7.6 0 12 .8 6.2 0 9.9 0 14.7 0 2.7 1.2 5.8 1.3 8 1 11.5 4.1 22.5 2.7 34.8 5 10.5 5.5 25.5 8 38.8 4.6 23.6 10.6 46.8 15.3 70.3 1.3 6.5 2.4 13.3 3.7 19.9 1.3 6.1 1.8 12.8 3.7 18.5.8 2.5 2.1 5.2 2.7 8 .6 3 1 6.2 1.8 9.2 1.9 7.1 4.7 14.1 8.2 20.5 2.3 4.2 3.6 8.9 4.8 13.7.1-.9.1-1.8.1-2.8-.2-3.4-1-6.8-1.7-10.1-2.5-12-5.8-24-7.8-36.4-1-6.5-2.7-12.4-2.7-19.2 0-4.7-1.4-15.5 3.3-18.2.1-.3 0-.6.1-.9 5.2 3.1 5.8 13.6 7.3 18.9 2.2 7.9 4.4 16 6.7 23.8 1.2 4.1 2.2 8.2 3.3 12.2 12.9 32.8 26.6 64.8 38.2 98.9-.8-.9-1.5-1.9-2.2-2.8.8 1.4 1.6 2.8 2.4 4.3 1.3.6 1.7 2.4 2.1 3.8.7 1.3 1.3 2.7 1.9 4 2.6 4.5 5.9 9.5 9.2 14.8 1.3 3.6 5.4 4.4 8 6.7-.2 6.5 6.5 10.4 8 14.7.8 2.2-2.4 3.8 0 5.4 2 4.7 5.3 8.1 8 12 4.8 2.8 7.6 7.6 12 10.7.4 6.3 5.5 7.9 6.7 13.4 9.3 6.3 16.5 14.8 24.1 22.8 8.6 3 13.9 9.3 20.1 14.7 13.8 6.3 27.9 12.3 41.5 18.7 4.9.3 9.5.9 13.6 2-32.5-15.8-11.9-16.6-18.5-17.7zm-29 9c2 1.3 4.1 2.5 6.2 3.7 2 1.1 3.9 1.8 5.8 2.3-3.8-1.5-7.5-3.2-10.4-5.8-.6 0-1.2-.1-1.6-.2zm65.8 17.3c-2.1-.9-4-1.7-5.9-2.5 1.2.9 2.3 1.9 3.4 3 4 .7 5.6.8 2.5-.5zm37.1-73.8c-2.8-.7-5.4-1.6-8-2.6 5.8 3.4 12.5 5.9 21.8 5.8 1.1-.5 1.6-1.2 1.8-1.8-5.3.2-10.9-.2-15.6-1.4zm-5.6-139.8c1.2 2.3 2.1 3.9 2.3 6.7.1 1.9-.3 5.5 1.8 6.2.2-3.1 1.4-7.5 3.3-2.5.7 1.9.4 5.2 1.2 7.5 1.6-3.2 3.2-6.4 5.4-8.9 0 .2 0 .4-.1.5 0-.1.1-.2.1-.3 1.2-4.1 1.5-8.3 3-12.1 2.6-6.5 9.9-13.2 16.3-6.7 1.9 1.9 3.6 4.5 4.7 7 1.2 2.6 1.5 6.3 3.9 8.3 0-.2.1-.2.2-.3.1-7.3.2-14.7-1.4-20.4-4.3-2.8-9.5-4.8-13.4-8-2.1 1.6-3.4 3.9-5.3 5.6-1.8 1.6-4.1 2-5.2 4.4-1.3.7-1.6 2.6-2.1 4-.6 1.9-1 2.9-1.8 4.7-1.3 2.7-1.6 5.8-3.9 8.1.8-.7-2-11.9-2.7-13.1-.8-1.4-2.9-2.8-4.3-3.4-1.6-1.7-3.5-3-5-4.8-1.6-2-2-3-4.5-2.2-3.4 1-6.9 3.5-9.5 5.9-5.3 4.9-10.2 14.2-9.2 21.7-.4-3.1-2.1-5-1.3-9.4-5-1-.9 7.1-6.7 5.4 1.2-6.1-2.2-7.6-2.7-12.1 3.3-.2 6.5-.2 8 1.3-1.6-1.5-.5-6.8-2.8-8.1-1.9-1.1-6.6 1.8-8.4 2.5-2.9 1.2-5.5 3.6-8.3 4.7-.6 2.3-1.9 4-2.3 6.4-.5 2.7-.9 5.4-1.4 8.1-.1.3-.3 1.2-.5 2.2l1.2 2.3c-.3-2.9 1.2-6.6 2.2-9.1 1.1-2.7 3-5.3 5.9-5.5 8.1-.7 7.1 7.3 10.4 11.8 0-1.2.6-2.1.8-3.2 4.2-3.2 5.8 12.6 8.8 13.2.2-4.1.3-8.2.3-12.3 0-5 2.3-7.5 5.1-11.1 6.6-8.5 14.1-2.3 17.9 5zm-48.9 104.2l-.1-.1c-4-3.8-8.4-7.4-12-10.6-1.5-4.8-18-14.4-29.2-28.9 1.7 5.1 11.5 20.6 20.5 32.2.7.2 1.4.1 2-.6-6-5.6-10.8-12.4-14.7-20.1 8 6.7 15.3 14.2 22.8 21.4 7.5 7.3 15.6 13.9 21.4 22.8 4.4.5 8.5 8.4 12 5.4-8.2-6.3-16.4-13.2-22.7-21.5zm92.4 85.6c-.3 3.9-.4 7-.6 9.7 1.3 1.4 2.6 2.5 3.6 3.2 2.1.4 4.2.5 6.3.4-1.6-4-.6-5.3-1.3-12-4.1 1-4.9-1.3-8-1.3zM351.8 83.4c0 17.7.2 35.6.6 53.5 2.8-11.1-3.1-19.8 1.9-27.9-.8-3.2-1.9-6.1-1.3-10.7-.2-2.4 1.6-2.8 1.3-5.4 2.2-.4 2.3 1.3 4 1.3-1.3 4.7-6 16.6 0 20.1-2.5 3.3-.4 11.2-2.7 14.7 1 4.6 1 9.6 0 16.1-.4 2.6 1.6 7.9-2.7 6.7 1.3-2.8.5-5.2-.4-8.1l.3 11.1v-.4c4.4-.5 2.7 6.3 2.7 10.7 0 4.2.4 9.1-1.3 10.7l-.6-1.8c.2 5 .4 9.8.4 14.4.5-1.6.9-3.2 1.6-4.6.8 10-.4 18.3 0 30.8-.1 1.4.6 3.4 1.3 1.3.1-10.3.9-49.8 1.3-64.3.4-13.9 3.6-64.9-1.3-73.6-.8 2.8 2.2 9.3-2.7 8 .1-4.9-3.5-10.5-1.3-13.4 2 .7 3.4 2 5.4 2.7 0-18.9-2.3-24.6-8.7-25.3.2.5.4 1.1.5 1.7 2.4 10.1 1.7 21.1 1.7 31.7zm-74 483.4c1.7 2.4 12.7 9.4 13.1 4 .3-3.7-13.4-12.4-16.4-15.3l-.1-.1c-3.5-.2-6.6-1.5-10.6-1.5-4.2 0-7.7.9-11.6 1.4-2.5.3-9 1.8-11.5.4-3.1-1.8-2.5-7.2-5.1-9.3-4.2 2.6-7.8 6.3-12 10.7.7 2.2 1.5 4.4 2.5 6.6 1.5 3.3 3 6.6 4.5 10 1.2 2.8 3.7 6.6 3.9 9.5 0 .7-1.7 1.3-1 2.7.3.8 1.9 1.1 2.5 1.7 2.3 2.2 3.1 5.3 5.9 7.1-.3-5.1-5.8-12-2.7-16.1 1.1 3.4 2.5 6.4 4 9.4-.2-2.8-.7-5.5-1.2-7.8-1.2-6-.8-9.5 5-12.1 4.9-2.2 10.9-3.9 16.3-4.6 5.8-.6 9.4 2.3 14.5 3.3zm10.9 1c-.1 0-.3-.1-.4-.1l-.3-.6.7.7zm-61.6-13.1c5.2.1 4.9 5.8 5.4 10.7-3.3-2.1-5.1-5.7-5.4-10.7zm88.6 65.6c.7 1.2 1.4 2.2 2 3.3-.8-2.4-2-3.3-2-3.3zm-12.1-231.9c-.6-2.1-1.2-4.2-1.9-6.3-2.9-9.5-6.1-19-9.7-28.3-1-2.5-3.1-10.7-6-11.9 1.9 13.5 7 26.1 10.7 38.8.7 2.5 1.6 5.9 2.5 9.7 1.3-.8 2.8-1.5 4.4-2zM188.1 578c-.6.3-1.3.6-1.9.9.5.2 1.2.2 2.1 0-.1-.3-.2-.6-.2-.9zm167.5-327.2c1.5-8.3.1-21.3 0-26.8-2.6 11.2-2.8 24.9-5.4 36.1-5-2.6-3.3.8-5.4 4 8 .7 9.5-5.9 10.8-13.3zm-93.7 435.4v-.3c-.1 0-.1-.1-.2-.1l.2.4zm44.2-40.5c-1.3.4-9.9.4-12 0-4.9-.9-12.5-5.1-16.5-8.3-4.2-3.4-14-13.9-15.5-14.6-.2 3 .3 6.1.9 9.1 2.6 2.7 6.8 7 9.4 9.2 4 3.2 19.1 7.9 26.9 10 6.5 1.7 14.3-5.9 17.5-14 0-2 .3-3.9 1.4-4.9.5-3.4.3-5.9-.1-7.7-4.4 9.5-2.5 18-12 21.2zm-184.8 73.7c.8 1.2 1.6 2.3 2.4 3.3.4.5.9.9 1.4 1.4-.8-2-1.7-4-3.8-4.7zm91.1 22.7c-1.8-3.1-7.7-2.1-10.7-4 .1 4 8.5 6.5 10.7 4zm-74.5 10.4c-1.1-1.2-2.1-2.3-3.2-3.5v2.6c1 .1 2.1.4 3.2.9zm105.3-108.1c-1.2 0-2.1-.3-2.8-.8.8 2.3 1.5 4.4 2.1 6.4.1-1.9.3-3.8.7-5.6zm8 56.2c0-.1 0 0 0 0zm6.7-24.1c-.9-1.6.1-6.4 0-8.4-.2-2.5-.5-5-.9-7.5-.8-4.5-2.2-8.9-3.7-13.2-1.7-4.8-2.2-9.8-3.6-14.7-1.5-5.5-3.5-10.8-5.7-15.9-3.4-7.7-9.3-13-15.8-17.8-3.3-2.4-6.7-4-10.2-5.9-1.7-1-3.1-1.8-4.8-3-3.5-2.3-4.6-3.3-8.8-3.2H184.2c-9 3.1-16.9 7.2-22.8 13.4 3.7 5.1 9.3.7 13.4-1.3 3.4-1.7 9.1-1.7 12.8-1.9 4-.2 7.9.1 11.9.7 4.2.7 8.4 1.9 12.5 3.1 2 .6 4.2.9 6 2.1 1.5 1 2.5 2.9 4.5 3.2 1.7 2.4 5 4 6.4 6.9 1.4.7 2.7 3.7 3.7 5.1 1.1 1.5 2.5 3.9 4.1 5 .9 3.3 4.3 6.3 5.6 9.8 1.4 3.7 2.6 7.3 3.7 11.1 1 3.6 2.5 7.4 3.1 10.9.7 4 .3 8.3.9 12.3.6 3.9 2.1 7.5 2.4 11.5.3 3.8.1 7.7-.1 11.5l2.2-20.9 4 9.1c-.2-.8-.3-1.4-.6-2zm12-356.1c-.4-2.8-5.9-.3-5.4-4-1.5-5.7-6.1-15.3-2.7-21.4 2.4 7 4.2 14.6 8 20.1-2-9.4-3.4-19.3-5.4-28.1-2.3-10.4-4.5-20.4-6.7-30.8-2.1-9.9-4.2-20-6.5-30.1-.2 0-.4-.2-.6-.2.9 6.5 2.7 12.9 2.2 19.5-.4 5.4 3.6 21.7-2.6 22.2-1.7.1-3-.5-4.1-1.5 7.5 26 16.6 54.4 23.7 66.3v-12h.1zm-148.6 48.2c-.3 6.9 5.1 10.8 1.3 17.4 4.7-.3 5.1-4.7 9.4-5.4-.4-3.1-2.1-5-1.3-9.4 1.6-2.5 3.5-4.5 5.4-6.7.5-5.3.5-11.1 5.4-12 0 .4.1.8.1 1.2.9-1.4 2-2.5 2.7-4 1.2-2.6.7-3.1 1.3-5.8 1-5 3.1-8.9 5.7-13.2 2.5-4.2 11-9 12.3-13.3 2.3-1.3 3.6-8.9 2.2-12.5-2.7 2.1-.9 8.7-5.5 8.8.2 3.3.2 6.4-1.3 8h-6.7c-4.7 15.8-22.4 18.6-24.1 37.5-4-1.4-2.4 3-2.7 5.4-3.1-.2-4.4 1.1-4.2 4zm95.1-255.7c-.5-2.4-.6-4.8 0-6.7 1.9-.5 5.8 2 5.4 4-.1.3-1.8 0-1.3 1.3 1.1 3.5 3.8 8.6 2.7 16.1-.4-.5-.8-1.1-1.2-1.8 1.9 3.9 3.9 7.7 5.4 11.7 2.9 3.2 3 9.3 3.4 15 .5 3.2 1 6.3 1.8 9.4.7 2.4 1.3 4.9 1.9 7.3 1.4.5 2.2 1.5 2.1-1.5-1.9-11.3-5.2-24.2-8-36.1-1.4-5.8-1.8-13.1-4-18.7-1.8-4.6-4.1-12.2-10.7-12-2.6.7-3.3 3.4-4.2 5.8 2.4 1.8 4.9 3.4 6.7 6.2zm-72 141.6c-1.1-3.7-2.6-6.8-4.9-9 .3 1.3.5 2.6.6 4 1.6 1.4 3 3.1 4.3 5zm86.7 69.9c1.4 11.1 6.5 15.3 12 22.8 3.8 5.2 7.5 10.5 10.7 16.1 5.6 9.6 9.8 21.7 13.3 31.8 1.7-1.8 4-3 6.8-2.8 1.3.1 2.3.6 3.3 1.4-.2-.7-.4-1.5-.6-2.2-6-18.6-30.6-54.3-33.5-57.6-2.8-3.2-5.2-7.6-9.4-9.4l-2.6-.1zm-55.8 123.2c-1.6-4.8-4.5-9.8-6.9-14.2-.2 1.8-.8 3.5-1.6 3.5-2.5-2-3.3-5.6-6.7-6.7 1.8 6.3 4.5 11.6 5.4 18.7-10.7 1.3-21.1 5.5-28.1 8-2.5.9-8.5-.4-8 4 3.9 1.2 8.8-1 13.2-2.1.7-.3 1.4-.7 2.1-1 8.2-3.4 16.3-6.4 25.3-6.5-.6-.4-1.1-.7-1.7-1.2-.8-4.3.9-6.2 1.3-9.4 2.9-.2 4.3 1.1 4 4 .1 1.6.8 2.3 1.7 2.9zm-28.9-100.9c-.2.3-.4.7-.7 1l-.5 31.1v.2c1.2-6.3 2.9-13.4 5.3-20-.8-4.3-2-8.7-4.1-12.3zm33.8 134.4c-5.9 1.9-13.2 2.6-18.7 1.3-8.4 2.7-14.4 8-22.8 10.7-6.6 7.7-13.7 14.8-21.4 21.4-.4 7.2-9.8 12.5-6.7 18.7-.4-4.2 3.9 3.4 4-1.3-1-.3-2.6 0-2.7-1.3.9-4.5 6-4.7 8-8-2.3-.5.3-1.7 0-4 4.2.6 3.5-3.6 6.7-4v-4c3.8-.3 3.7-4.4 6.7-5.4 1.3 0 1.6 1.1 2.7 1.3.2-3.4.3-6.9 4-6.7-.4.8-3.3 5.2 0 5.4 2-2 2.4-5.6 5.3-6.7.1 1.8-.6 2.9-1.3 4 5.1-.3 3.2-7.5 8-8 .8 2.4-3.9 5.6 0 6.7.5-4 2.3-6.6 5.3-8-.6 1.4-2.7 10.2 0 6.7-.8-5.7 3.6-6.2 6.7-8-.2 2.2-4.5 6.9-1.3 8 1-4.3 3.7-7 8-8-1.3 2.7-2.7 5.3-4 8 5.7-.5 5.7-6.8 12-6.7-.3 2.5-5.9 10.5-2.7 8 .8-2.4 7.2-6 8-4-1.2 2.5-7.1 6.2-1.3 8 .9-4.9 4.6-7 9.4-8-.9 3.6-3.8 5.1-5.4 8 2.5.3 3-1.5 5.4-1.3.2 1.8-5.4 4-1.3 5.4 0-1.4 2.3-1.7 2.7 0 .4 2.4-6.3 4.1-2.7 5.4.2-1.1 4.4-4.1 4-1.3-.4 2.7-3.6 2.6-4 5.4.5.1.9.1 1.3 0 .3-.1.6-.2.8-.3 1-.4 1.5-1 1.9.3-.1.1-.1.2-.2.2.4.3.8.8 1.2 1.6 1.6 3.1 1.7 6.9 1.7 10.4 0-1.1.3-2.1.9-2.9.4 2.9-.6 5.4.2 8.3.4 1.2.7 2.6 1.5 3.6.3.4.6.6 1 .8-.3-2.1-.3-3.8.3-4.6 2.2 0 .8 3.7 2.7 4 1.4-4.1.8-15.8 1.3-21.4.4-4-1.8-10.8 2.7-12 .1 3.4.8 6.4 2.7 8 .4-4.3 0-7.6-.9-10.6-.4-.8-.7-1.6-1-2.4-.1-.2-.1-.4-.1-.6-2.3-5-6-8.7-8.7-13.2-7.9-1-12.2-5.7-19.9-6.9zm-23.7-67c-.3-.3-.7-.6-1-.8.5 2.7 1.4 5.7 4.7 6.2.1-.3.1-.5.1-.8-1.3-1.7-2.5-3.3-3.8-4.6zm102.7-235.6c6.5-4.3 2.7 6.2 6.7 8 2.4-4.1 4.1 3.8 4 6.7 5.6 2.1.2-6.9 4-6.7.7 2.4.7 5.6 2.7 6.7.8-2.8-1.7-8.8 1.3-9.4.5 3.6 1.4 13.6 5.4 9.4-2.4.4-2.4-7.5 1.3-5.4 0 5.3 1.3 9.4 4 12-1.5-3.7-.8-8.6 1.3-12-.1 4.1.6 7.4 2.7 9.4 3.5-2.8-.9-13.4 2.7-16.1 1.7 4.1.9 10.7 4 13.4 1.4-6.9-.7-9 2.7-13.4.1 3.6 2.4 11.8 4 9.4-2.6-5.1-1.2-16.7 0-18.7 3.6-1-1 6.3 2.7 5.3-.2-6.9.8-15.1-1.3-20.1-14 2.7-24 1.2-40.2 1.3-4 2.7-3.6 9.8-9.4 10.7.5 3.3 2.2 5.2 1.4 9.5zm19.9 90.7c1.2-.2 2.4-.5 3.3-.8 3.5-1.5 6.8-3.7 10.5-4.8 8.3-2.6 24.6-3.7 32.1 1.3 2.2 1.5 4.8 5 7.5 7.7-1.2-4.1-2.7-8.6-3.6-13.8-4.3-2.8-7.8-6.4-9.4-12-12.6.3-22.1 3.8-32.1 6.7 2.1 10.1-5.3 10.7-8.3 15.7zm40.4-17.1c-.6 3.6-6.4 5.5-9.4 2.7-5 .6-7 1.3-14.7 1.3 5-3.9 18.1-9.4 24.1-4zm14.7-9.3c.4 3.2.7 7.7 1.3 10.7.8 3.3 2.8 8.6 5.4 10.7.7-2 2-3.4 2.7-5.4 2-5.1-6-.3-4-5.4 1-8-2.4-20.2 2.7-24.1V240c3.2-.8-.2 11.6 2.7 6.7.8-3.2-1.7-9.7 1.3-10.7.7 1.9-1.6 6.9 1.3 6.7 2.5-9.5 2.7-21.4 3.3-32.7-.5 1.5-1 3.1-1.6 4.7-1.4 3.7-4.4 11.4-8.8 9.2-2.9-1.5-5.5-8.9-6.5-11.6-.7-1.7-1.1-3.6-1.6-5.4.2 3.9.3 7.2.4 9.1.7 10.2.4 19.5 1.4 26.8zM243 154.3c.3-3.3 0-5.8-.6-8.2-1.9.4-3.2-.3-3.5 1.9-.3 1.9 2.9 4.8 4.1 6.6v-.3zm-.6 38.5v-1.1c-1.1-3.5-2.1-7.1-3.3-10.5-.2 1.5.2 3.5-.4 4.6.5 1.9 1 3.9 1.6 5.8.5.4 1.5.8 2.1 1.2z"/></svg>